solid ASCII
  facet normal 5.666892e-01 2.559477e-01 7.831692e-01
    outer loop
      vertex   -5.996407e+01 2.075101e+02 5.112966e+02
      vertex   -4.493554e+01 1.697275e+02 5.127699e+02
      vertex   -2.943064e+01 1.838062e+02 4.969498e+02
    endloop
  endfacet
  facet normal 5.666892e-01 2.559477e-01 7.831692e-01
    outer loop
      vertex   -2.943064e+01 1.838062e+02 4.969498e+02
      vertex   -4.493554e+01 1.697275e+02 5.127699e+02
      vertex   -1.227610e+01 1.313153e+02 5.016916e+02
    endloop
  endfacet
  facet normal 5.666892e-01 2.559477e-01 7.831692e-01
    outer loop
      vertex   -2.943064e+01 1.838062e+02 4.969498e+02
      vertex   -1.227610e+01 1.313153e+02 5.016916e+02
      vertex   1.102794e+00 1.601022e+02 4.826030e+02
    endloop
  endfacet
  facet normal 5.666892e-01 2.559477e-01 7.831692e-01
    outer loop
      vertex   1.102794e+00 1.601022e+02 4.826030e+02
      vertex   -1.227610e+01 1.313153e+02 5.016916e+02
      vertex   1.825733e+01 1.076113e+02 4.873448e+02
    endloop
  endfacet
  facet normal 5.666892e-01 2.559477e-01 7.831692e-01
    outer loop
      vertex   1.102794e+00 1.601022e+02 4.826030e+02
      vertex   1.825733e+01 1.076113e+02 4.873448e+02
      vertex   3.163623e+01 1.363982e+02 4.682561e+02
    endloop
  endfacet
  facet normal 5.666892e-01 2.559477e-01 7.831692e-01
    outer loop
      vertex   3.163623e+01 1.363982e+02 4.682561e+02
      vertex   1.825733e+01 1.076113e+02 4.873448e+02
      vertex   4.879077e+01 8.390732e+01 4.729979e+02
    endloop
  endfacet
  facet normal 5.666892e-01 2.559477e-01 7.831692e-01
    outer loop
      vertex   3.163623e+01 1.363982e+02 4.682561e+02
      vertex   4.879077e+01 8.390732e+01 4.729979e+02
      vertex   6.216966e+01 1.126943e+02 4.539093e+02
    endloop
  endfacet
  facet normal 5.666892e-01 2.559477e-01 7.831692e-01
    outer loop
      vertex   6.216966e+01 1.126943e+02 4.539093e+02
      vertex   4.879077e+01 8.390732e+01 4.729979e+02
      vertex   7.707909e+01 6.194629e+01 4.597060e+02
    endloop
  endfacet
  facet normal 5.666892e-01 2.559477e-01 7.831692e-01
    outer loop
      vertex   6.216966e+01 1.126943e+02 4.539093e+02
      vertex   7.707909e+01 6.194629e+01 4.597060e+02
      vertex   9.270309e+01 8.899030e+01 4.395625e+02
    endloop
  endfacet
  facet normal 5.666892e-01 2.559477e-01 7.831692e-01
    outer loop
      vertex   -4.493554e+01 1.697275e+02 5.127699e+02
      vertex   -2.990702e+01 1.319448e+02 5.142433e+02
      vertex   -1.227610e+01 1.313153e+02 5.016916e+02
    endloop
  endfacet
  facet normal 5.666892e-01 2.559477e-01 7.831692e-01
    outer loop
      vertex   -1.227610e+01 1.313153e+02 5.016916e+02
      vertex   -2.990702e+01 1.319448e+02 5.142433e+02
      vertex   -1.487849e+01 9.416220e+01 5.157166e+02
    endloop
  endfacet
  facet normal 5.666892e-01 2.559477e-01 7.831692e-01
    outer loop
      vertex   -1.227610e+01 1.313153e+02 5.016916e+02
      vertex   -1.487849e+01 9.416220e+01 5.157166e+02
      vertex   1.825733e+01 1.076113e+02 4.873448e+02
    endloop
  endfacet
  facet normal 5.666892e-01 2.559477e-01 7.831692e-01
    outer loop
      vertex   1.825733e+01 1.076113e+02 4.873448e+02
      vertex   -1.487849e+01 9.416220e+01 5.157166e+02
      vertex   4.878440e+00 7.882434e+01 5.064334e+02
    endloop
  endfacet
  facet normal 5.666892e-01 2.559477e-01 7.831692e-01
    outer loop
      vertex   1.825733e+01 1.076113e+02 4.873448e+02
      vertex   4.878440e+00 7.882434e+01 5.064334e+02
      vertex   3.541187e+01 5.512037e+01 4.920866e+02
    endloop
  endfacet
  facet normal 5.666892e-01 2.559477e-01 7.831692e-01
    outer loop
      vertex   3.541187e+01 5.512037e+01 4.920866e+02
      vertex   4.878440e+00 7.882434e+01 5.064334e+02
      vertex   1.500402e-01 5.637956e+01 5.171900e+02
    endloop
  endfacet
  facet normal 5.666892e-01 2.559477e-01 7.831692e-01
    outer loop
      vertex   3.541187e+01 5.512037e+01 4.920866e+02
      vertex   1.500402e-01 5.637956e+01 5.171900e+02
      vertex   2.203298e+01 2.633343e+01 5.111752e+02
    endloop
  endfacet
  facet normal 5.666892e-01 2.559477e-01 7.831692e-01
    outer loop
      vertex   2.203298e+01 2.633343e+01 5.111752e+02
      vertex   1.500402e-01 5.637956e+01 5.171900e+02
      vertex   1.517857e+01 1.859691e+01 5.186633e+02
    endloop
  endfacet
  facet normal 5.666892e-01 2.559477e-01 7.831692e-01
    outer loop
      vertex   2.203298e+01 2.633343e+01 5.111752e+02
      vertex   1.517857e+01 1.859691e+01 5.186633e+02
      vertex   4.583110e+01 7.858276e+00 4.999931e+02
    endloop
  endfacet
  facet normal 5.666892e-01 2.559477e-01 7.831692e-01
    outer loop
      vertex   4.583110e+01 7.858276e+00 4.999931e+02
      vertex   1.517857e+01 1.859691e+01 5.186633e+02
      vertex   3.020710e+01 -1.918573e+01 5.201367e+02
    endloop
  endfacet
  facet normal 5.666892e-01 2.559477e-01 7.831692e-01
    outer loop
      vertex   -1.487849e+01 9.416220e+01 5.157166e+02
      vertex   1.500402e-01 5.637956e+01 5.171900e+02
      vertex   4.878440e+00 7.882434e+01 5.064334e+02
    endloop
  endfacet
  facet normal 5.666892e-01 2.559477e-01 7.831692e-01
    outer loop
      vertex   2.203298e+01 2.633343e+01 5.111752e+02
      vertex   4.583110e+01 7.858276e+00 4.999931e+02
      vertex   3.541187e+01 5.512037e+01 4.920866e+02
    endloop
  endfacet
  facet normal 5.666892e-01 2.559477e-01 7.831692e-01
    outer loop
      vertex   3.541187e+01 5.512037e+01 4.920866e+02
      vertex   4.583110e+01 7.858276e+00 4.999931e+02
      vertex   6.145510e+01 3.490228e+01 4.798496e+02
    endloop
  endfacet
  facet normal 5.666892e-01 2.559477e-01 7.831692e-01
    outer loop
      vertex   3.541187e+01 5.512037e+01 4.920866e+02
      vertex   6.145510e+01 3.490228e+01 4.798496e+02
      vertex   4.879077e+01 8.390732e+01 4.729979e+02
    endloop
  endfacet
  facet normal 5.666892e-01 2.559477e-01 7.831692e-01
    outer loop
      vertex   4.879077e+01 8.390732e+01 4.729979e+02
      vertex   6.145510e+01 3.490228e+01 4.798496e+02
      vertex   7.707909e+01 6.194629e+01 4.597060e+02
    endloop
  endfacet
  facet normal 5.666892e-01 2.559477e-01 7.831692e-01
    outer loop
      vertex   3.541187e+01 5.512037e+01 4.920866e+02
      vertex   4.879077e+01 8.390732e+01 4.729979e+02
      vertex   1.825733e+01 1.076113e+02 4.873448e+02
    endloop
  endfacet
  facet normal 1.557580e-01 6.505359e-01 -7.433321e-01
    outer loop
      vertex   -5.996407e+01 2.075101e+02 5.112966e+02
      vertex   -2.943064e+01 1.838062e+02 4.969498e+02
      vertex   -3.756862e+01 1.803860e+02 4.922513e+02
    endloop
  endfacet
  facet normal 1.557580e-01 6.505359e-01 -7.433321e-01
    outer loop
      vertex   -3.756862e+01 1.803860e+02 4.922513e+02
      vertex   -2.943064e+01 1.838062e+02 4.969498e+02
      vertex   -1.517316e+01 1.532618e+02 4.732060e+02
    endloop
  endfacet
  facet normal 1.557580e-01 6.505359e-01 -7.433321e-01
    outer loop
      vertex   -1.517316e+01 1.532618e+02 4.732060e+02
      vertex   -2.943064e+01 1.838062e+02 4.969498e+02
      vertex   1.102794e+00 1.601022e+02 4.826030e+02
    endloop
  endfacet
  facet normal 1.557580e-01 6.505359e-01 -7.433321e-01
    outer loop
      vertex   -1.517316e+01 1.532618e+02 4.732060e+02
      vertex   1.102794e+00 1.601022e+02 4.826030e+02
      vertex   7.222297e+00 1.261376e+02 4.541607e+02
    endloop
  endfacet
  facet normal 1.557580e-01 6.505359e-01 -7.433321e-01
    outer loop
      vertex   7.222297e+00 1.261376e+02 4.541607e+02
      vertex   1.102794e+00 1.601022e+02 4.826030e+02
      vertex   2.756724e+01 1.346881e+02 4.659069e+02
    endloop
  endfacet
  facet normal 1.557580e-01 6.505359e-01 -7.433321e-01
    outer loop
      vertex   7.222297e+00 1.261376e+02 4.541607e+02
      vertex   2.756724e+01 1.346881e+02 4.659069e+02
      vertex   4.996270e+01 1.075640e+02 4.468616e+02
    endloop
  endfacet
  facet normal 1.557580e-01 6.505359e-01 -7.433321e-01
    outer loop
      vertex   4.996270e+01 1.075640e+02 4.468616e+02
      vertex   2.756724e+01 1.346881e+02 4.659069e+02
      vertex   3.163623e+01 1.363982e+02 4.682561e+02
    endloop
  endfacet
  facet normal 1.557580e-01 6.505359e-01 -7.433321e-01
    outer loop
      vertex   4.996270e+01 1.075640e+02 4.468616e+02
      vertex   3.163623e+01 1.363982e+02 4.682561e+02
      vertex   6.216966e+01 1.126943e+02 4.539093e+02
    endloop
  endfacet
  facet normal 1.557580e-01 6.505359e-01 -7.433321e-01
    outer loop
      vertex   1.102794e+00 1.601022e+02 4.826030e+02
      vertex   3.163623e+01 1.363982e+02 4.682561e+02
      vertex   2.756724e+01 1.346881e+02 4.659069e+02
    endloop
  endfacet
  facet normal 1.557580e-01 6.505359e-01 -7.433321e-01
    outer loop
      vertex   9.270309e+01 8.899030e+01 4.395625e+02
      vertex   7.235815e+01 8.043979e+01 4.278163e+02
      vertex   6.216966e+01 1.126943e+02 4.539093e+02
    endloop
  endfacet
  facet normal 1.557580e-01 6.505359e-01 -7.433321e-01
    outer loop
      vertex   6.216966e+01 1.126943e+02 4.539093e+02
      vertex   7.235815e+01 8.043979e+01 4.278163e+02
      vertex   4.996270e+01 1.075640e+02 4.468616e+02
    endloop
  endfacet
  facet normal 1.557580e-01 6.505359e-01 -7.433321e-01
    outer loop
      vertex   5.201321e+01 7.188929e+01 4.160702e+02
      vertex   2.961775e+01 9.901346e+01 4.351155e+02
      vertex   7.235815e+01 8.043979e+01 4.278163e+02
    endloop
  endfacet
  facet normal 1.557580e-01 6.505359e-01 -7.433321e-01
    outer loop
      vertex   7.235815e+01 8.043979e+01 4.278163e+02
      vertex   2.961775e+01 9.901346e+01 4.351155e+02
      vertex   4.996270e+01 1.075640e+02 4.468616e+02
    endloop
  endfacet
  facet normal 1.557580e-01 6.505359e-01 -7.433321e-01
    outer loop
      vertex   2.961775e+01 9.901346e+01 4.351155e+02
      vertex   7.222297e+00 1.261376e+02 4.541607e+02
      vertex   4.996270e+01 1.075640e+02 4.468616e+02
    endloop
  endfacet
  facet normal 5.598864e-01 -6.781042e-01 -4.761322e-01
    outer loop
      vertex   9.270309e+01 8.899030e+01 4.395625e+02
      vertex   7.707909e+01 6.194629e+01 4.597060e+02
      vertex   7.235815e+01 8.043979e+01 4.278163e+02
    endloop
  endfacet
  facet normal 5.598864e-01 -6.781042e-01 -4.761322e-01
    outer loop
      vertex   7.235815e+01 8.043979e+01 4.278163e+02
      vertex   7.707909e+01 6.194629e+01 4.597060e+02
      vertex   6.690662e+01 5.767104e+01 4.538329e+02
    endloop
  endfacet
  facet normal 5.598864e-01 -6.781042e-01 -4.761322e-01
    outer loop
      vertex   7.235815e+01 8.043979e+01 4.278163e+02
      vertex   6.690662e+01 5.767104e+01 4.538329e+02
      vertex   5.201321e+01 7.188929e+01 4.160702e+02
    endloop
  endfacet
  facet normal 5.598864e-01 -6.781042e-01 -4.761322e-01
    outer loop
      vertex   5.201321e+01 7.188929e+01 4.160702e+02
      vertex   6.690662e+01 5.767104e+01 4.538329e+02
      vertex   4.656168e+01 4.912053e+01 4.420868e+02
    endloop
  endfacet
  facet normal 5.598864e-01 -6.781042e-01 -4.761322e-01
    outer loop
      vertex   4.656168e+01 4.912053e+01 4.420868e+02
      vertex   6.690662e+01 5.767104e+01 4.538329e+02
      vertex   6.145510e+01 3.490228e+01 4.798496e+02
    endloop
  endfacet
  facet normal 5.598864e-01 -6.781042e-01 -4.761322e-01
    outer loop
      vertex   4.656168e+01 4.912053e+01 4.420868e+02
      vertex   6.145510e+01 3.490228e+01 4.798496e+02
      vertex   4.111015e+01 2.635178e+01 4.681034e+02
    endloop
  endfacet
  facet normal 5.598864e-01 -6.781042e-01 -4.761322e-01
    outer loop
      vertex   4.111015e+01 2.635178e+01 4.681034e+02
      vertex   6.145510e+01 3.490228e+01 4.798496e+02
      vertex   4.583110e+01 7.858276e+00 4.999931e+02
    endloop
  endfacet
  facet normal 5.598864e-01 -6.781042e-01 -4.761322e-01
    outer loop
      vertex   4.111015e+01 2.635178e+01 4.681034e+02
      vertex   4.583110e+01 7.858276e+00 4.999931e+02
      vertex   3.565862e+01 3.583024e+00 4.941200e+02
    endloop
  endfacet
  facet normal 5.598864e-01 -6.781042e-01 -4.761322e-01
    outer loop
      vertex   3.565862e+01 3.583024e+00 4.941200e+02
      vertex   4.583110e+01 7.858276e+00 4.999931e+02
      vertex   3.020710e+01 -1.918573e+01 5.201367e+02
    endloop
  endfacet
  facet normal 5.598864e-01 -6.781042e-01 -4.761322e-01
    outer loop
      vertex   7.707909e+01 6.194629e+01 4.597060e+02
      vertex   6.145510e+01 3.490228e+01 4.798496e+02
      vertex   6.690662e+01 5.767104e+01 4.538329e+02
    endloop
  endfacet
  facet normal -8.137977e-01 -3.420201e-01 -4.698463e-01
    outer loop
      vertex   -5.996407e+01 2.075101e+02 5.112966e+02
      vertex   -3.756862e+01 1.803860e+02 4.922513e+02
      vertex   -4.493554e+01 1.697275e+02 5.127699e+02
    endloop
  endfacet
  facet normal -8.137977e-01 -3.420201e-01 -4.698463e-01
    outer loop
      vertex   -4.493554e+01 1.697275e+02 5.127699e+02
      vertex   -3.756862e+01 1.803860e+02 4.922513e+02
      vertex   -2.062469e+01 1.304930e+02 4.992227e+02
    endloop
  endfacet
  facet normal -8.137977e-01 -3.420201e-01 -4.698463e-01
    outer loop
      vertex   -4.493554e+01 1.697275e+02 5.127699e+02
      vertex   -2.062469e+01 1.304930e+02 4.992227e+02
      vertex   -2.990702e+01 1.319448e+02 5.142433e+02
    endloop
  endfacet
  facet normal -8.137977e-01 -3.420201e-01 -4.698463e-01
    outer loop
      vertex   -2.990702e+01 1.319448e+02 5.142433e+02
      vertex   -2.062469e+01 1.304930e+02 4.992227e+02
      vertex   -1.487849e+01 9.416220e+01 5.157166e+02
    endloop
  endfacet
  facet normal -8.137977e-01 -3.420201e-01 -4.698463e-01
    outer loop
      vertex   -1.487849e+01 9.416220e+01 5.157166e+02
      vertex   -2.062469e+01 1.304930e+02 4.992227e+02
      vertex   1.770769e+00 1.033689e+02 4.801774e+02
    endloop
  endfacet
  facet normal -8.137977e-01 -3.420201e-01 -4.698463e-01
    outer loop
      vertex   -1.487849e+01 9.416220e+01 5.157166e+02
      vertex   1.770769e+00 1.033689e+02 4.801774e+02
      vertex   -3.680760e+00 8.060012e+01 5.061940e+02
    endloop
  endfacet
  facet normal -8.137977e-01 -3.420201e-01 -4.698463e-01
    outer loop
      vertex   -3.680760e+00 8.060012e+01 5.061940e+02
      vertex   1.770769e+00 1.033689e+02 4.801774e+02
      vertex   2.416623e+01 7.624470e+01 4.611321e+02
    endloop
  endfacet
  facet normal -8.137977e-01 -3.420201e-01 -4.698463e-01
    outer loop
      vertex   -3.680760e+00 8.060012e+01 5.061940e+02
      vertex   2.416623e+01 7.624470e+01 4.611321e+02
      vertex   1.871470e+01 5.347595e+01 4.871487e+02
    endloop
  endfacet
  facet normal -8.137977e-01 -3.420201e-01 -4.698463e-01
    outer loop
      vertex   1.871470e+01 5.347595e+01 4.871487e+02
      vertex   2.416623e+01 7.624470e+01 4.611321e+02
      vertex   4.656168e+01 4.912053e+01 4.420868e+02
    endloop
  endfacet
  facet normal -8.137977e-01 -3.420201e-01 -4.698463e-01
    outer loop
      vertex   1.871470e+01 5.347595e+01 4.871487e+02
      vertex   4.656168e+01 4.912053e+01 4.420868e+02
      vertex   4.111015e+01 2.635178e+01 4.681034e+02
    endloop
  endfacet
  facet normal -8.137977e-01 -3.420201e-01 -4.698463e-01
    outer loop
      vertex   -3.756862e+01 1.803860e+02 4.922513e+02
      vertex   -1.517316e+01 1.532618e+02 4.732060e+02
      vertex   -2.062469e+01 1.304930e+02 4.992227e+02
    endloop
  endfacet
  facet normal -8.137977e-01 -3.420201e-01 -4.698463e-01
    outer loop
      vertex   -2.062469e+01 1.304930e+02 4.992227e+02
      vertex   -1.517316e+01 1.532618e+02 4.732060e+02
      vertex   7.222297e+00 1.261376e+02 4.541607e+02
    endloop
  endfacet
  facet normal -8.137977e-01 -3.420201e-01 -4.698463e-01
    outer loop
      vertex   -2.062469e+01 1.304930e+02 4.992227e+02
      vertex   7.222297e+00 1.261376e+02 4.541607e+02
      vertex   1.770769e+00 1.033689e+02 4.801774e+02
    endloop
  endfacet
  facet normal -8.137977e-01 -3.420201e-01 -4.698463e-01
    outer loop
      vertex   1.770769e+00 1.033689e+02 4.801774e+02
      vertex   7.222297e+00 1.261376e+02 4.541607e+02
      vertex   2.961775e+01 9.901346e+01 4.351155e+02
    endloop
  endfacet
  facet normal -8.137977e-01 -3.420201e-01 -4.698463e-01
    outer loop
      vertex   1.770769e+00 1.033689e+02 4.801774e+02
      vertex   2.961775e+01 9.901346e+01 4.351155e+02
      vertex   2.416623e+01 7.624470e+01 4.611321e+02
    endloop
  endfacet
  facet normal -8.137977e-01 -3.420201e-01 -4.698463e-01
    outer loop
      vertex   2.416623e+01 7.624470e+01 4.611321e+02
      vertex   2.961775e+01 9.901346e+01 4.351155e+02
      vertex   5.201321e+01 7.188929e+01 4.160702e+02
    endloop
  endfacet
  facet normal -8.137977e-01 -3.420201e-01 -4.698463e-01
    outer loop
      vertex   2.416623e+01 7.624470e+01 4.611321e+02
      vertex   5.201321e+01 7.188929e+01 4.160702e+02
      vertex   4.656168e+01 4.912053e+01 4.420868e+02
    endloop
  endfacet
  facet normal -8.137977e-01 -3.420201e-01 -4.698463e-01
    outer loop
      vertex   1.871470e+01 5.347595e+01 4.871487e+02
      vertex   4.111015e+01 2.635178e+01 4.681034e+02
      vertex   1.326317e+01 3.070719e+01 5.131653e+02
    endloop
  endfacet
  facet normal -8.137977e-01 -3.420201e-01 -4.698463e-01
    outer loop
      vertex   1.326317e+01 3.070719e+01 5.131653e+02
      vertex   4.111015e+01 2.635178e+01 4.681034e+02
      vertex   3.565862e+01 3.583024e+00 4.941200e+02
    endloop
  endfacet
  facet normal -8.137977e-01 -3.420201e-01 -4.698463e-01
    outer loop
      vertex   1.326317e+01 3.070719e+01 5.131653e+02
      vertex   3.565862e+01 3.583024e+00 4.941200e+02
      vertex   1.517857e+01 1.859691e+01 5.186633e+02
    endloop
  endfacet
  facet normal -8.137977e-01 -3.420201e-01 -4.698463e-01
    outer loop
      vertex   1.517857e+01 1.859691e+01 5.186633e+02
      vertex   3.565862e+01 3.583024e+00 4.941200e+02
      vertex   3.020710e+01 -1.918573e+01 5.201367e+02
    endloop
  endfacet
  facet normal -8.137977e-01 -3.420201e-01 -4.698463e-01
    outer loop
      vertex   1.517857e+01 1.859691e+01 5.186633e+02
      vertex   1.500402e-01 5.637956e+01 5.171900e+02
      vertex   1.326317e+01 3.070719e+01 5.131653e+02
    endloop
  endfacet
  facet normal -8.137977e-01 -3.420201e-01 -4.698463e-01
    outer loop
      vertex   1.326317e+01 3.070719e+01 5.131653e+02
      vertex   1.500402e-01 5.637956e+01 5.171900e+02
      vertex   1.871470e+01 5.347595e+01 4.871487e+02
    endloop
  endfacet
  facet normal -8.137977e-01 -3.420201e-01 -4.698463e-01
    outer loop
      vertex   1.871470e+01 5.347595e+01 4.871487e+02
      vertex   1.500402e-01 5.637956e+01 5.171900e+02
      vertex   -3.680760e+00 8.060012e+01 5.061940e+02
    endloop
  endfacet
  facet normal -8.137977e-01 -3.420201e-01 -4.698463e-01
    outer loop
      vertex   -3.680760e+00 8.060012e+01 5.061940e+02
      vertex   1.500402e-01 5.637956e+01 5.171900e+02
      vertex   -1.487849e+01 9.416220e+01 5.157166e+02
    endloop
  endfacet
endsolid
