solid ASCII
  facet normal 2.960316e-01 5.867277e-01 7.537347e-01
    outer loop
      vertex   9.897290e+00 1.429561e+00 -8.326430e+00
      vertex   8.080960e+00 2.345984e+00 -8.326430e+00
      vertex   8.247742e+00 1.191301e+00 -7.493096e+00
    endloop
  endfacet
  facet normal 2.960316e-01 5.867277e-01 7.537347e-01
    outer loop
      vertex   8.247742e+00 1.191301e+00 -7.493096e+00
      vertex   8.080960e+00 2.345984e+00 -8.326430e+00
      vertex   5.853156e+00 2.613588e+00 -7.659763e+00
    endloop
  endfacet
  facet normal 2.960316e-01 5.867277e-01 7.537347e-01
    outer loop
      vertex   8.247742e+00 1.191301e+00 -7.493096e+00
      vertex   5.853156e+00 2.613588e+00 -7.659763e+00
      vertex   6.598194e+00 9.530404e-01 -6.659763e+00
    endloop
  endfacet
  facet normal 2.960316e-01 5.867277e-01 7.537347e-01
    outer loop
      vertex   6.598194e+00 9.530404e-01 -6.659763e+00
      vertex   5.853156e+00 2.613588e+00 -7.659763e+00
      vertex   4.203608e+00 2.375328e+00 -6.826430e+00
    endloop
  endfacet
  facet normal 2.960316e-01 5.867277e-01 7.537347e-01
    outer loop
      vertex   6.598194e+00 9.530404e-01 -6.659763e+00
      vertex   4.203608e+00 2.375328e+00 -6.826430e+00
      vertex   4.948645e+00 7.147803e-01 -5.826430e+00
    endloop
  endfacet
  facet normal 2.960316e-01 5.867277e-01 7.537347e-01
    outer loop
      vertex   4.948645e+00 7.147803e-01 -5.826430e+00
      vertex   4.203608e+00 2.375328e+00 -6.826430e+00
      vertex   2.554059e+00 2.137068e+00 -5.993096e+00
    endloop
  endfacet
  facet normal 2.960316e-01 5.867277e-01 7.537347e-01
    outer loop
      vertex   4.948645e+00 7.147803e-01 -5.826430e+00
      vertex   2.554059e+00 2.137068e+00 -5.993096e+00
      vertex   3.299097e+00 4.765202e-01 -4.993096e+00
    endloop
  endfacet
  facet normal 2.960316e-01 5.867277e-01 7.537347e-01
    outer loop
      vertex   3.299097e+00 4.765202e-01 -4.993096e+00
      vertex   2.554059e+00 2.137068e+00 -5.993096e+00
      vertex   9.045108e-01 1.898808e+00 -5.159763e+00
    endloop
  endfacet
  facet normal 2.960316e-01 5.867277e-01 7.537347e-01
    outer loop
      vertex   3.299097e+00 4.765202e-01 -4.993096e+00
      vertex   9.045108e-01 1.898808e+00 -5.159763e+00
      vertex   1.649548e+00 2.382601e-01 -4.159763e+00
    endloop
  endfacet
  facet normal 2.960316e-01 5.867277e-01 7.537347e-01
    outer loop
      vertex   1.649548e+00 2.382601e-01 -4.159763e+00
      vertex   9.045108e-01 1.898808e+00 -5.159763e+00
      vertex   -2.001385e-01 1.385621e+00 -4.326430e+00
    endloop
  endfacet
  facet normal 2.960316e-01 5.867277e-01 7.537347e-01
    outer loop
      vertex   1.649548e+00 2.382601e-01 -4.159763e+00
      vertex   -2.001385e-01 1.385621e+00 -4.326430e+00
      vertex   0.000000e+00 0.000000e+00 -3.326430e+00
    endloop
  endfacet
  facet normal 2.960316e-01 5.867277e-01 7.537347e-01
    outer loop
      vertex   8.080960e+00 2.345984e+00 -8.326430e+00
      vertex   6.264629e+00 3.262408e+00 -8.326430e+00
      vertex   5.853156e+00 2.613588e+00 -7.659763e+00
    endloop
  endfacet
  facet normal 2.960316e-01 5.867277e-01 7.537347e-01
    outer loop
      vertex   5.853156e+00 2.613588e+00 -7.659763e+00
      vertex   6.264629e+00 3.262408e+00 -8.326430e+00
      vertex   4.448299e+00 4.178832e+00 -8.326430e+00
    endloop
  endfacet
  facet normal 2.960316e-01 5.867277e-01 7.537347e-01
    outer loop
      vertex   5.853156e+00 2.613588e+00 -7.659763e+00
      vertex   4.448299e+00 4.178832e+00 -8.326430e+00
      vertex   4.203608e+00 2.375328e+00 -6.826430e+00
    endloop
  endfacet
  facet normal 2.960316e-01 5.867277e-01 7.537347e-01
    outer loop
      vertex   4.203608e+00 2.375328e+00 -6.826430e+00
      vertex   4.448299e+00 4.178832e+00 -8.326430e+00
      vertex   3.458570e+00 4.035876e+00 -7.826430e+00
    endloop
  endfacet
  facet normal 2.960316e-01 5.867277e-01 7.537347e-01
    outer loop
      vertex   4.203608e+00 2.375328e+00 -6.826430e+00
      vertex   3.458570e+00 4.035876e+00 -7.826430e+00
      vertex   1.809022e+00 3.797616e+00 -6.993096e+00
    endloop
  endfacet
  facet normal 2.960316e-01 5.867277e-01 7.537347e-01
    outer loop
      vertex   1.809022e+00 3.797616e+00 -6.993096e+00
      vertex   3.458570e+00 4.035876e+00 -7.826430e+00
      vertex   2.631968e+00 5.095256e+00 -8.326430e+00
    endloop
  endfacet
  facet normal 2.960316e-01 5.867277e-01 7.537347e-01
    outer loop
      vertex   1.809022e+00 3.797616e+00 -6.993096e+00
      vertex   2.631968e+00 5.095256e+00 -8.326430e+00
      vertex   1.063984e+00 5.458164e+00 -7.993096e+00
    endloop
  endfacet
  facet normal 2.960316e-01 5.867277e-01 7.537347e-01
    outer loop
      vertex   1.063984e+00 5.458164e+00 -7.993096e+00
      vertex   2.631968e+00 5.095256e+00 -8.326430e+00
      vertex   8.156380e-01 6.011679e+00 -8.326430e+00
    endloop
  endfacet
  facet normal 2.960316e-01 5.867277e-01 7.537347e-01
    outer loop
      vertex   1.063984e+00 5.458164e+00 -7.993096e+00
      vertex   8.156380e-01 6.011679e+00 -8.326430e+00
      vertex   -5.855645e-01 5.219903e+00 -7.159763e+00
    endloop
  endfacet
  facet normal 2.960316e-01 5.867277e-01 7.537347e-01
    outer loop
      vertex   -5.855645e-01 5.219903e+00 -7.159763e+00
      vertex   8.156380e-01 6.011679e+00 -8.326430e+00
      vertex   -8.005540e-01 5.542483e+00 -7.326430e+00
    endloop
  endfacet
  facet normal 2.960316e-01 5.867277e-01 7.537347e-01
    outer loop
      vertex   -5.855645e-01 5.219903e+00 -7.159763e+00
      vertex   -8.005540e-01 5.542483e+00 -7.326430e+00
      vertex   -6.004155e-01 4.156862e+00 -6.326430e+00
    endloop
  endfacet
  facet normal 2.960316e-01 5.867277e-01 7.537347e-01
    outer loop
      vertex   4.448299e+00 4.178832e+00 -8.326430e+00
      vertex   2.631968e+00 5.095256e+00 -8.326430e+00
      vertex   3.458570e+00 4.035876e+00 -7.826430e+00
    endloop
  endfacet
  facet normal 2.960316e-01 5.867277e-01 7.537347e-01
    outer loop
      vertex   8.156380e-01 6.011679e+00 -8.326430e+00
      vertex   -1.000692e+00 6.928103e+00 -8.326430e+00
      vertex   -8.005540e-01 5.542483e+00 -7.326430e+00
    endloop
  endfacet
  facet normal 2.960316e-01 5.867277e-01 7.537347e-01
    outer loop
      vertex   -5.855645e-01 5.219903e+00 -7.159763e+00
      vertex   -6.004155e-01 4.156862e+00 -6.326430e+00
      vertex   1.594731e-01 3.559356e+00 -6.159763e+00
    endloop
  endfacet
  facet normal 2.960316e-01 5.867277e-01 7.537347e-01
    outer loop
      vertex   1.594731e-01 3.559356e+00 -6.159763e+00
      vertex   -6.004155e-01 4.156862e+00 -6.326430e+00
      vertex   -4.002770e-01 2.771241e+00 -5.326430e+00
    endloop
  endfacet
  facet normal 2.960316e-01 5.867277e-01 7.537347e-01
    outer loop
      vertex   1.594731e-01 3.559356e+00 -6.159763e+00
      vertex   -4.002770e-01 2.771241e+00 -5.326430e+00
      vertex   9.045108e-01 1.898808e+00 -5.159763e+00
    endloop
  endfacet
  facet normal 2.960316e-01 5.867277e-01 7.537347e-01
    outer loop
      vertex   9.045108e-01 1.898808e+00 -5.159763e+00
      vertex   -4.002770e-01 2.771241e+00 -5.326430e+00
      vertex   -2.001385e-01 1.385621e+00 -4.326430e+00
    endloop
  endfacet
  facet normal 2.960316e-01 5.867277e-01 7.537347e-01
    outer loop
      vertex   1.594731e-01 3.559356e+00 -6.159763e+00
      vertex   9.045108e-01 1.898808e+00 -5.159763e+00
      vertex   2.554059e+00 2.137068e+00 -5.993096e+00
    endloop
  endfacet
  facet normal 2.960316e-01 5.867277e-01 7.537347e-01
    outer loop
      vertex   1.594731e-01 3.559356e+00 -6.159763e+00
      vertex   2.554059e+00 2.137068e+00 -5.993096e+00
      vertex   1.809022e+00 3.797616e+00 -6.993096e+00
    endloop
  endfacet
  facet normal 2.960316e-01 5.867277e-01 7.537347e-01
    outer loop
      vertex   1.809022e+00 3.797616e+00 -6.993096e+00
      vertex   2.554059e+00 2.137068e+00 -5.993096e+00
      vertex   4.203608e+00 2.375328e+00 -6.826430e+00
    endloop
  endfacet
  facet normal 2.960316e-01 5.867277e-01 7.537347e-01
    outer loop
      vertex   -5.855645e-01 5.219903e+00 -7.159763e+00
      vertex   1.594731e-01 3.559356e+00 -6.159763e+00
      vertex   1.809022e+00 3.797616e+00 -6.993096e+00
    endloop
  endfacet
  facet normal 2.960316e-01 5.867277e-01 7.537347e-01
    outer loop
      vertex   1.063984e+00 5.458164e+00 -7.993096e+00
      vertex   -5.855645e-01 5.219903e+00 -7.159763e+00
      vertex   1.809022e+00 3.797616e+00 -6.993096e+00
    endloop
  endfacet
  facet normal 1.429561e-01 -9.897290e-01 1.665335e-16
    outer loop
      vertex   9.897290e+00 1.429561e+00 -8.326430e+00
      vertex   8.247742e+00 1.191301e+00 -7.493096e+00
      vertex   7.917832e+00 1.143649e+00 -8.326430e+00
    endloop
  endfacet
  facet normal 1.429561e-01 -9.897290e-01 1.665335e-16
    outer loop
      vertex   7.917832e+00 1.143649e+00 -8.326430e+00
      vertex   8.247742e+00 1.191301e+00 -7.493096e+00
      vertex   6.598194e+00 9.530404e-01 -6.659763e+00
    endloop
  endfacet
  facet normal 1.429561e-01 -9.897290e-01 0.000000e+00
    outer loop
      vertex   7.917832e+00 1.143649e+00 -8.326430e+00
      vertex   6.598194e+00 9.530404e-01 -6.659763e+00
      vertex   5.938374e+00 8.577364e-01 -8.326430e+00
    endloop
  endfacet
  facet normal 1.429561e-01 -9.897290e-01 -8.643539e-17
    outer loop
      vertex   5.938374e+00 8.577364e-01 -8.326430e+00
      vertex   6.598194e+00 9.530404e-01 -6.659763e+00
      vertex   5.938374e+00 8.577364e-01 -6.659763e+00
    endloop
  endfacet
  facet normal 1.429561e-01 -9.897290e-01 -8.643539e-17
    outer loop
      vertex   5.938374e+00 8.577364e-01 -8.326430e+00
      vertex   5.938374e+00 8.577364e-01 -6.659763e+00
      vertex   3.958916e+00 5.718243e-01 -6.659763e+00
    endloop
  endfacet
  facet normal 1.429561e-01 -9.897290e-01 0.000000e+00
    outer loop
      vertex   3.958916e+00 5.718243e-01 -6.659763e+00
      vertex   5.938374e+00 8.577364e-01 -6.659763e+00
      vertex   4.948645e+00 7.147803e-01 -5.826430e+00
    endloop
  endfacet
  facet normal 1.429561e-01 -9.897290e-01 3.747003e-17
    outer loop
      vertex   3.958916e+00 5.718243e-01 -6.659763e+00
      vertex   4.948645e+00 7.147803e-01 -5.826430e+00
      vertex   3.299097e+00 4.765202e-01 -4.993096e+00
    endloop
  endfacet
  facet normal 1.429561e-01 -9.897290e-01 0.000000e+00
    outer loop
      vertex   6.598194e+00 9.530404e-01 -6.659763e+00
      vertex   4.948645e+00 7.147803e-01 -5.826430e+00
      vertex   5.938374e+00 8.577364e-01 -6.659763e+00
    endloop
  endfacet
  facet normal 1.429561e-01 -9.897290e-01 3.747003e-17
    outer loop
      vertex   1.649548e+00 2.382601e-01 -4.159763e+00
      vertex   1.979458e+00 2.859121e-01 -4.993096e+00
      vertex   3.299097e+00 4.765202e-01 -4.993096e+00
    endloop
  endfacet
  facet normal 1.429561e-01 -9.897290e-01 0.000000e+00
    outer loop
      vertex   3.299097e+00 4.765202e-01 -4.993096e+00
      vertex   1.979458e+00 2.859121e-01 -4.993096e+00
      vertex   1.979458e+00 2.859121e-01 -6.659763e+00
    endloop
  endfacet
  facet normal 1.429561e-01 -9.897290e-01 3.330669e-17
    outer loop
      vertex   3.299097e+00 4.765202e-01 -4.993096e+00
      vertex   1.979458e+00 2.859121e-01 -6.659763e+00
      vertex   3.958916e+00 5.718243e-01 -6.659763e+00
    endloop
  endfacet
  facet normal 1.429561e-01 -9.897290e-01 2.783805e-17
    outer loop
      vertex   3.958916e+00 5.718243e-01 -6.659763e+00
      vertex   1.979458e+00 2.859121e-01 -6.659763e+00
      vertex   3.958916e+00 5.718243e-01 -8.326430e+00
    endloop
  endfacet
  facet normal 1.429561e-01 -9.897290e-01 2.783805e-17
    outer loop
      vertex   3.958916e+00 5.718243e-01 -6.659763e+00
      vertex   3.958916e+00 5.718243e-01 -8.326430e+00
      vertex   5.938374e+00 8.577364e-01 -8.326430e+00
    endloop
  endfacet
  facet normal 1.429561e-01 -9.897290e-01 0.000000e+00
    outer loop
      vertex   0.000000e+00 0.000000e+00 -3.326430e+00
      vertex   0.000000e+00 0.000000e+00 -4.993096e+00
      vertex   1.649548e+00 2.382601e-01 -4.159763e+00
    endloop
  endfacet
  facet normal 1.429561e-01 -9.897290e-01 2.498002e-17
    outer loop
      vertex   1.649548e+00 2.382601e-01 -4.159763e+00
      vertex   0.000000e+00 0.000000e+00 -4.993096e+00
      vertex   1.979458e+00 2.859121e-01 -4.993096e+00
    endloop
  endfacet
  facet normal 1.429561e-01 -9.897290e-01 0.000000e+00
    outer loop
      vertex   1.979458e+00 2.859121e-01 -4.993096e+00
      vertex   0.000000e+00 0.000000e+00 -4.993096e+00
      vertex   1.979458e+00 2.859121e-01 -6.659763e+00
    endloop
  endfacet
  facet normal 1.429561e-01 -9.897290e-01 0.000000e+00
    outer loop
      vertex   1.979458e+00 2.859121e-01 -6.659763e+00
      vertex   0.000000e+00 0.000000e+00 -4.993096e+00
      vertex   0.000000e+00 0.000000e+00 -6.659763e+00
    endloop
  endfacet
  facet normal 1.429561e-01 -9.897290e-01 1.904557e-17
    outer loop
      vertex   1.979458e+00 2.859121e-01 -6.659763e+00
      vertex   0.000000e+00 0.000000e+00 -6.659763e+00
      vertex   1.979458e+00 2.859121e-01 -8.326430e+00
    endloop
  endfacet
  facet normal 1.429561e-01 -9.897290e-01 0.000000e+00
    outer loop
      vertex   1.979458e+00 2.859121e-01 -8.326430e+00
      vertex   0.000000e+00 0.000000e+00 -6.659763e+00
      vertex   0.000000e+00 0.000000e+00 -8.326430e+00
    endloop
  endfacet
  facet normal 1.429561e-01 -9.897290e-01 1.904557e-17
    outer loop
      vertex   1.979458e+00 2.859121e-01 -8.326430e+00
      vertex   3.958916e+00 5.718243e-01 -8.326430e+00
      vertex   1.979458e+00 2.859121e-01 -6.659763e+00
    endloop
  endfacet
  facet normal -9.897290e-01 -1.429561e-01 -0.000000e+00
    outer loop
      vertex   0.000000e+00 0.000000e+00 -3.326430e+00
      vertex   -2.001385e-01 1.385621e+00 -4.326430e+00
      vertex   0.000000e+00 0.000000e+00 -4.993096e+00
    endloop
  endfacet
  facet normal -9.897290e-01 -1.429561e-01 -4.758099e-17
    outer loop
      vertex   0.000000e+00 0.000000e+00 -4.993096e+00
      vertex   -2.001385e-01 1.385621e+00 -4.326430e+00
      vertex   -2.501731e-01 1.732026e+00 -4.993096e+00
    endloop
  endfacet
  facet normal -9.897290e-01 -1.429561e-01 -0.000000e+00
    outer loop
      vertex   0.000000e+00 0.000000e+00 -4.993096e+00
      vertex   -2.501731e-01 1.732026e+00 -4.993096e+00
      vertex   0.000000e+00 0.000000e+00 -6.659763e+00
    endloop
  endfacet
  facet normal -9.897290e-01 -1.429561e-01 0.000000e+00
    outer loop
      vertex   0.000000e+00 0.000000e+00 -6.659763e+00
      vertex   -2.501731e-01 1.732026e+00 -4.993096e+00
      vertex   -2.501731e-01 1.732026e+00 -6.659763e+00
    endloop
  endfacet
  facet normal -9.897290e-01 -1.429561e-01 -0.000000e+00
    outer loop
      vertex   0.000000e+00 0.000000e+00 -6.659763e+00
      vertex   -2.501731e-01 1.732026e+00 -6.659763e+00
      vertex   0.000000e+00 0.000000e+00 -8.326430e+00
    endloop
  endfacet
  facet normal -9.897290e-01 -1.429561e-01 0.000000e+00
    outer loop
      vertex   0.000000e+00 0.000000e+00 -8.326430e+00
      vertex   -2.501731e-01 1.732026e+00 -6.659763e+00
      vertex   -2.501731e-01 1.732026e+00 -8.326430e+00
    endloop
  endfacet
  facet normal -9.897290e-01 -1.429561e-01 0.000000e+00
    outer loop
      vertex   -2.501731e-01 1.732026e+00 -8.326430e+00
      vertex   -2.501731e-01 1.732026e+00 -6.659763e+00
      vertex   -5.003462e-01 3.464052e+00 -6.659763e+00
    endloop
  endfacet
  facet normal -9.897290e-01 -1.429561e-01 0.000000e+00
    outer loop
      vertex   -2.501731e-01 1.732026e+00 -8.326430e+00
      vertex   -5.003462e-01 3.464052e+00 -6.659763e+00
      vertex   -5.003462e-01 3.464052e+00 -8.326430e+00
    endloop
  endfacet
  facet normal -9.897290e-01 -1.429561e-01 0.000000e+00
    outer loop
      vertex   -5.003462e-01 3.464052e+00 -8.326430e+00
      vertex   -5.003462e-01 3.464052e+00 -6.659763e+00
      vertex   -7.505193e-01 5.196077e+00 -8.326430e+00
    endloop
  endfacet
  facet normal -9.897290e-01 -1.429561e-01 -9.516197e-17
    outer loop
      vertex   -7.505193e-01 5.196077e+00 -8.326430e+00
      vertex   -5.003462e-01 3.464052e+00 -6.659763e+00
      vertex   -6.004155e-01 4.156862e+00 -6.326430e+00
    endloop
  endfacet
  facet normal -9.897290e-01 -1.429561e-01 -1.625684e-16
    outer loop
      vertex   -7.505193e-01 5.196077e+00 -8.326430e+00
      vertex   -6.004155e-01 4.156862e+00 -6.326430e+00
      vertex   -8.005540e-01 5.542483e+00 -7.326430e+00
    endloop
  endfacet
  facet normal -9.897290e-01 -1.429561e-01 -1.665335e-16
    outer loop
      vertex   -2.001385e-01 1.385621e+00 -4.326430e+00
      vertex   -4.002770e-01 2.771241e+00 -5.326430e+00
      vertex   -2.501731e-01 1.732026e+00 -4.993096e+00
    endloop
  endfacet
  facet normal -9.897290e-01 -1.429561e-01 -0.000000e+00
    outer loop
      vertex   -2.501731e-01 1.732026e+00 -4.993096e+00
      vertex   -4.002770e-01 2.771241e+00 -5.326430e+00
      vertex   -2.501731e-01 1.732026e+00 -6.659763e+00
    endloop
  endfacet
  facet normal -9.897290e-01 -1.429561e-01 -2.379049e-17
    outer loop
      vertex   -2.501731e-01 1.732026e+00 -6.659763e+00
      vertex   -4.002770e-01 2.771241e+00 -5.326430e+00
      vertex   -5.003462e-01 3.464052e+00 -6.659763e+00
    endloop
  endfacet
  facet normal -9.897290e-01 -1.429561e-01 0.000000e+00
    outer loop
      vertex   -5.003462e-01 3.464052e+00 -6.659763e+00
      vertex   -4.002770e-01 2.771241e+00 -5.326430e+00
      vertex   -6.004155e-01 4.156862e+00 -6.326430e+00
    endloop
  endfacet
  facet normal -9.897290e-01 -1.429561e-01 -1.427430e-16
    outer loop
      vertex   -8.005540e-01 5.542483e+00 -7.326430e+00
      vertex   -1.000692e+00 6.928103e+00 -8.326430e+00
      vertex   -7.505193e-01 5.196077e+00 -8.326430e+00
    endloop
  endfacet
  facet normal -0.000000e+00 0.000000e+00 -1.000000e+00
    outer loop
      vertex   9.897290e+00 1.429561e+00 -8.326430e+00
      vertex   7.917832e+00 1.143649e+00 -8.326430e+00
      vertex   8.080960e+00 2.345984e+00 -8.326430e+00
    endloop
  endfacet
  facet normal -0.000000e+00 0.000000e+00 -1.000000e+00
    outer loop
      vertex   8.080960e+00 2.345984e+00 -8.326430e+00
      vertex   7.917832e+00 1.143649e+00 -8.326430e+00
      vertex   5.688201e+00 2.589762e+00 -8.326430e+00
    endloop
  endfacet
  facet normal 0.000000e+00 0.000000e+00 -1.000000e+00
    outer loop
      vertex   8.080960e+00 2.345984e+00 -8.326430e+00
      vertex   5.688201e+00 2.589762e+00 -8.326430e+00
      vertex   6.264629e+00 3.262408e+00 -8.326430e+00
    endloop
  endfacet
  facet normal -0.000000e+00 0.000000e+00 -1.000000e+00
    outer loop
      vertex   6.264629e+00 3.262408e+00 -8.326430e+00
      vertex   5.688201e+00 2.589762e+00 -8.326430e+00
      vertex   4.448299e+00 4.178832e+00 -8.326430e+00
    endloop
  endfacet
  facet normal 0.000000e+00 -0.000000e+00 -1.000000e+00
    outer loop
      vertex   4.448299e+00 4.178832e+00 -8.326430e+00
      vertex   5.688201e+00 2.589762e+00 -8.326430e+00
      vertex   3.708743e+00 2.303850e+00 -8.326430e+00
    endloop
  endfacet
  facet normal 0.000000e+00 0.000000e+00 -1.000000e+00
    outer loop
      vertex   4.448299e+00 4.178832e+00 -8.326430e+00
      vertex   3.708743e+00 2.303850e+00 -8.326430e+00
      vertex   3.458570e+00 4.035876e+00 -8.326430e+00
    endloop
  endfacet
  facet normal 0.000000e+00 -0.000000e+00 -1.000000e+00
    outer loop
      vertex   3.458570e+00 4.035876e+00 -8.326430e+00
      vertex   3.708743e+00 2.303850e+00 -8.326430e+00
      vertex   1.729285e+00 2.017938e+00 -8.326430e+00
    endloop
  endfacet
  facet normal 0.000000e+00 0.000000e+00 -1.000000e+00
    outer loop
      vertex   3.458570e+00 4.035876e+00 -8.326430e+00
      vertex   1.729285e+00 2.017938e+00 -8.326430e+00
      vertex   1.479112e+00 3.749964e+00 -8.326430e+00
    endloop
  endfacet
  facet normal 0.000000e+00 -0.000000e+00 -1.000000e+00
    outer loop
      vertex   1.479112e+00 3.749964e+00 -8.326430e+00
      vertex   1.729285e+00 2.017938e+00 -8.326430e+00
      vertex   -2.501731e-01 1.732026e+00 -8.326430e+00
    endloop
  endfacet
  facet normal 0.000000e+00 0.000000e+00 -1.000000e+00
    outer loop
      vertex   1.479112e+00 3.749964e+00 -8.326430e+00
      vertex   -2.501731e-01 1.732026e+00 -8.326430e+00
      vertex   -5.003462e-01 3.464052e+00 -8.326430e+00
    endloop
  endfacet
  facet normal -0.000000e+00 0.000000e+00 -1.000000e+00
    outer loop
      vertex   7.917832e+00 1.143649e+00 -8.326430e+00
      vertex   5.938374e+00 8.577364e-01 -8.326430e+00
      vertex   5.688201e+00 2.589762e+00 -8.326430e+00
    endloop
  endfacet
  facet normal 0.000000e+00 -0.000000e+00 -1.000000e+00
    outer loop
      vertex   5.688201e+00 2.589762e+00 -8.326430e+00
      vertex   5.938374e+00 8.577364e-01 -8.326430e+00
      vertex   3.958916e+00 5.718243e-01 -8.326430e+00
    endloop
  endfacet
  facet normal 0.000000e+00 0.000000e+00 -1.000000e+00
    outer loop
      vertex   5.688201e+00 2.589762e+00 -8.326430e+00
      vertex   3.958916e+00 5.718243e-01 -8.326430e+00
      vertex   3.708743e+00 2.303850e+00 -8.326430e+00
    endloop
  endfacet
  facet normal 0.000000e+00 -0.000000e+00 -1.000000e+00
    outer loop
      vertex   3.708743e+00 2.303850e+00 -8.326430e+00
      vertex   3.958916e+00 5.718243e-01 -8.326430e+00
      vertex   1.979458e+00 2.859121e-01 -8.326430e+00
    endloop
  endfacet
  facet normal 0.000000e+00 0.000000e+00 -1.000000e+00
    outer loop
      vertex   3.708743e+00 2.303850e+00 -8.326430e+00
      vertex   1.979458e+00 2.859121e-01 -8.326430e+00
      vertex   1.729285e+00 2.017938e+00 -8.326430e+00
    endloop
  endfacet
  facet normal 0.000000e+00 -0.000000e+00 -1.000000e+00
    outer loop
      vertex   1.729285e+00 2.017938e+00 -8.326430e+00
      vertex   1.979458e+00 2.859121e-01 -8.326430e+00
      vertex   0.000000e+00 0.000000e+00 -8.326430e+00
    endloop
  endfacet
  facet normal 0.000000e+00 0.000000e+00 -1.000000e+00
    outer loop
      vertex   1.729285e+00 2.017938e+00 -8.326430e+00
      vertex   0.000000e+00 0.000000e+00 -8.326430e+00
      vertex   -2.501731e-01 1.732026e+00 -8.326430e+00
    endloop
  endfacet
  facet normal -0.000000e+00 0.000000e+00 -1.000000e+00
    outer loop
      vertex   1.479112e+00 3.749964e+00 -8.326430e+00
      vertex   -5.003462e-01 3.464052e+00 -8.326430e+00
      vertex   1.228939e+00 5.481990e+00 -8.326430e+00
    endloop
  endfacet
  facet normal 0.000000e+00 0.000000e+00 -1.000000e+00
    outer loop
      vertex   1.228939e+00 5.481990e+00 -8.326430e+00
      vertex   -5.003462e-01 3.464052e+00 -8.326430e+00
      vertex   -7.505193e-01 5.196077e+00 -8.326430e+00
    endloop
  endfacet
  facet normal -0.000000e+00 0.000000e+00 -1.000000e+00
    outer loop
      vertex   1.228939e+00 5.481990e+00 -8.326430e+00
      vertex   -7.505193e-01 5.196077e+00 -8.326430e+00
      vertex   8.156380e-01 6.011679e+00 -8.326430e+00
    endloop
  endfacet
  facet normal -0.000000e+00 0.000000e+00 -1.000000e+00
    outer loop
      vertex   8.156380e-01 6.011679e+00 -8.326430e+00
      vertex   -7.505193e-01 5.196077e+00 -8.326430e+00
      vertex   -1.000692e+00 6.928103e+00 -8.326430e+00
    endloop
  endfacet
  facet normal 0.000000e+00 0.000000e+00 -1.000000e+00
    outer loop
      vertex   8.156380e-01 6.011679e+00 -8.326430e+00
      vertex   2.631968e+00 5.095256e+00 -8.326430e+00
      vertex   1.228939e+00 5.481990e+00 -8.326430e+00
    endloop
  endfacet
  facet normal 0.000000e+00 0.000000e+00 -1.000000e+00
    outer loop
      vertex   1.228939e+00 5.481990e+00 -8.326430e+00
      vertex   2.631968e+00 5.095256e+00 -8.326430e+00
      vertex   1.479112e+00 3.749964e+00 -8.326430e+00
    endloop
  endfacet
  facet normal 0.000000e+00 0.000000e+00 -1.000000e+00
    outer loop
      vertex   1.479112e+00 3.749964e+00 -8.326430e+00
      vertex   2.631968e+00 5.095256e+00 -8.326430e+00
      vertex   3.458570e+00 4.035876e+00 -8.326430e+00
    endloop
  endfacet
  facet normal 0.000000e+00 0.000000e+00 -1.000000e+00
    outer loop
      vertex   3.458570e+00 4.035876e+00 -8.326430e+00
      vertex   2.631968e+00 5.095256e+00 -8.326430e+00
      vertex   4.448299e+00 4.178832e+00 -8.326430e+00
    endloop
  endfacet
endsolid
