solid ASCII
  facet normal 0.000000e+00 -7.071068e-01 7.071068e-01
    outer loop
      vertex   -4.000000e+01 -7.000000e+01 -5.000000e-01
      vertex   -2.000000e+01 -7.000000e+01 -5.000000e-01
      vertex   -3.632052e+01 -6.200000e+01 7.500000e+00
    endloop
  endfacet
  facet normal 0.000000e+00 -7.071068e-01 7.071068e-01
    outer loop
      vertex   -3.632052e+01 -6.200000e+01 7.500000e+00
      vertex   -2.000000e+01 -7.000000e+01 -5.000000e-01
      vertex   -1.816026e+01 -6.200000e+01 7.500000e+00
    endloop
  endfacet
  facet normal -5.024296e-16 -7.071068e-01 7.071068e-01
    outer loop
      vertex   -1.816026e+01 -6.200000e+01 7.500000e+00
      vertex   -2.000000e+01 -7.000000e+01 -5.000000e-01
      vertex   8.881784e-15 -7.000000e+01 -5.000000e-01
    endloop
  endfacet
  facet normal 0.000000e+00 -7.071068e-01 7.071068e-01
    outer loop
      vertex   -1.816026e+01 -6.200000e+01 7.500000e+00
      vertex   8.881784e-15 -7.000000e+01 -5.000000e-01
      vertex   8.881784e-15 -6.200000e+01 7.500000e+00
    endloop
  endfacet
  facet normal -5.368755e-01 4.601790e-01 7.071068e-01
    outer loop
      vertex   -4.000000e+01 7.000000e+01 -5.000000e-01
      vertex   -5.535149e+01 5.208993e+01 -5.000000e-01
      vertex   -3.632052e+01 6.200000e+01 7.500000e+00
    endloop
  endfacet
  facet normal -5.368755e-01 4.601790e-01 7.071068e-01
    outer loop
      vertex   -3.632052e+01 6.200000e+01 7.500000e+00
      vertex   -5.535149e+01 5.208993e+01 -5.000000e-01
      vertex   -5.087382e+01 4.502115e+01 7.500000e+00
    endloop
  endfacet
  facet normal -5.368755e-01 4.601790e-01 7.071068e-01
    outer loop
      vertex   -5.087382e+01 4.502115e+01 7.500000e+00
      vertex   -5.535149e+01 5.208993e+01 -5.000000e-01
      vertex   -6.382846e+01 3.070897e+01 6.978351e+00
    endloop
  endfacet
  facet normal -5.368755e-01 4.601790e-01 7.071068e-01
    outer loop
      vertex   -5.087382e+01 4.502115e+01 7.500000e+00
      vertex   -6.382846e+01 3.070897e+01 6.978351e+00
      vertex   -6.542712e+01 2.804230e+01 7.500000e+00
    endloop
  endfacet
  facet normal -5.368755e-01 4.601790e-01 7.071068e-01
    outer loop
      vertex   -6.542712e+01 2.804230e+01 7.500000e+00
      vertex   -6.382846e+01 3.070897e+01 6.978351e+00
      vertex   -7.070298e+01 3.417986e+01 -5.000000e-01
    endloop
  endfacet
  facet normal -5.368755e-01 4.601790e-01 7.071068e-01
    outer loop
      vertex   -6.542712e+01 2.804230e+01 7.500000e+00
      vertex   -7.070298e+01 3.417986e+01 -5.000000e-01
      vertex   -8.605447e+01 1.626978e+01 -5.000000e-01
    endloop
  endfacet
  facet normal -5.368755e-01 4.601790e-01 7.071068e-01
    outer loop
      vertex   -5.535149e+01 5.208993e+01 -5.000000e-01
      vertex   -7.070298e+01 3.417986e+01 -5.000000e-01
      vertex   -6.382846e+01 3.070897e+01 6.978351e+00
    endloop
  endfacet
  facet normal -5.368755e-01 4.601790e-01 7.071068e-01
    outer loop
      vertex   -8.605447e+01 1.626978e+01 -5.000000e-01
      vertex   -7.998042e+01 1.106345e+01 7.500000e+00
      vertex   -6.542712e+01 2.804230e+01 7.500000e+00
    endloop
  endfacet
  facet normal -5.024296e-16 7.071068e-01 7.071068e-01
    outer loop
      vertex   -4.000000e+01 7.000000e+01 -5.000000e-01
      vertex   -3.632052e+01 6.200000e+01 7.500000e+00
      vertex   -2.000000e+01 7.000000e+01 -5.000000e-01
    endloop
  endfacet
  facet normal 0.000000e+00 7.071068e-01 7.071068e-01
    outer loop
      vertex   -2.000000e+01 7.000000e+01 -5.000000e-01
      vertex   -3.632052e+01 6.200000e+01 7.500000e+00
      vertex   -1.816026e+01 6.200000e+01 7.500000e+00
    endloop
  endfacet
  facet normal -0.000000e+00 7.071068e-01 7.071068e-01
    outer loop
      vertex   -2.000000e+01 7.000000e+01 -5.000000e-01
      vertex   -1.816026e+01 6.200000e+01 7.500000e+00
      vertex   8.881784e-15 7.000000e+01 -5.000000e-01
    endloop
  endfacet
  facet normal 0.000000e+00 7.071068e-01 7.071068e-01
    outer loop
      vertex   8.881784e-15 7.000000e+01 -5.000000e-01
      vertex   -1.816026e+01 6.200000e+01 7.500000e+00
      vertex   8.881784e-15 6.200000e+01 7.500000e+00
    endloop
  endfacet
  facet normal -5.821206e-01 4.046011e-01 7.052898e-01
    outer loop
      vertex   -8.605447e+01 1.626978e+01 -5.000000e-01
      vertex   -8.893835e+01 1.212059e+01 -5.000000e-01
      vertex   -7.998042e+01 1.106345e+01 7.500000e+00
    endloop
  endfacet
  facet normal -5.862757e-01 3.929875e-01 7.084078e-01
    outer loop
      vertex   -7.998042e+01 1.106345e+01 7.500000e+00
      vertex   -8.893835e+01 1.212059e+01 -5.000000e-01
      vertex   -8.221106e+01 7.735686e+00 7.500000e+00
    endloop
  endfacet
  facet normal -6.535603e-01 2.801263e-01 7.031274e-01
    outer loop
      vertex   -8.221106e+01 7.735686e+00 7.500000e+00
      vertex   -8.893835e+01 1.212059e+01 -5.000000e-01
      vertex   -9.092899e+01 7.476251e+00 -5.000000e-01
    endloop
  endfacet
  facet normal -6.596131e-01 2.440068e-01 7.108947e-01
    outer loop
      vertex   -8.221106e+01 7.735686e+00 7.500000e+00
      vertex   -9.092899e+01 7.476251e+00 -5.000000e-01
      vertex   -8.360100e+01 3.978312e+00 7.500000e+00
    endloop
  endfacet
  facet normal -6.978041e-01 1.432433e-01 7.018196e-01
    outer loop
      vertex   -8.360100e+01 3.978312e+00 7.500000e+00
      vertex   -9.092899e+01 7.476251e+00 -5.000000e-01
      vertex   -9.194507e+01 2.526488e+00 -5.000000e-01
    endloop
  endfacet
  facet normal -6.971580e-01 8.272240e-02 7.121290e-01
    outer loop
      vertex   -8.360100e+01 3.978312e+00 7.500000e+00
      vertex   -9.194507e+01 2.526488e+00 -5.000000e-01
      vertex   -8.407306e+01 9.774833e-15 7.500000e+00
    endloop
  endfacet
  facet normal -7.127857e-01 0.000000e+00 7.013819e-01
    outer loop
      vertex   -8.407306e+01 9.774833e-15 7.500000e+00
      vertex   -9.194507e+01 2.526488e+00 -5.000000e-01
      vertex   -9.194507e+01 -2.526488e+00 -5.000000e-01
    endloop
  endfacet
  facet normal -6.971580e-01 -8.272240e-02 7.121290e-01
    outer loop
      vertex   -8.407306e+01 9.774833e-15 7.500000e+00
      vertex   -9.194507e+01 -2.526488e+00 -5.000000e-01
      vertex   -8.360100e+01 -3.978312e+00 7.500000e+00
    endloop
  endfacet
  facet normal -6.978041e-01 -1.432433e-01 7.018196e-01
    outer loop
      vertex   -8.360100e+01 -3.978312e+00 7.500000e+00
      vertex   -9.194507e+01 -2.526488e+00 -5.000000e-01
      vertex   -9.092899e+01 -7.476251e+00 -5.000000e-01
    endloop
  endfacet
  facet normal -6.596131e-01 -2.440068e-01 7.108947e-01
    outer loop
      vertex   -8.360100e+01 -3.978312e+00 7.500000e+00
      vertex   -9.092899e+01 -7.476251e+00 -5.000000e-01
      vertex   -8.221106e+01 -7.735686e+00 7.500000e+00
    endloop
  endfacet
  facet normal -6.535603e-01 -2.801263e-01 7.031274e-01
    outer loop
      vertex   -8.221106e+01 -7.735686e+00 7.500000e+00
      vertex   -9.092899e+01 -7.476251e+00 -5.000000e-01
      vertex   -8.893835e+01 -1.212059e+01 -5.000000e-01
    endloop
  endfacet
  facet normal -5.862757e-01 -3.929875e-01 7.084078e-01
    outer loop
      vertex   -8.221106e+01 -7.735686e+00 7.500000e+00
      vertex   -8.893835e+01 -1.212059e+01 -5.000000e-01
      vertex   -7.998042e+01 -1.106345e+01 7.500000e+00
    endloop
  endfacet
  facet normal -5.821206e-01 -4.046011e-01 7.052898e-01
    outer loop
      vertex   -7.998042e+01 -1.106345e+01 7.500000e+00
      vertex   -8.893835e+01 -1.212059e+01 -5.000000e-01
      vertex   -8.605447e+01 -1.626978e+01 -5.000000e-01
    endloop
  endfacet
  facet normal -5.368755e-01 -4.601790e-01 7.071068e-01
    outer loop
      vertex   -4.000000e+01 -7.000000e+01 -5.000000e-01
      vertex   -3.632052e+01 -6.200000e+01 7.500000e+00
      vertex   -5.535149e+01 -5.208993e+01 -5.000000e-01
    endloop
  endfacet
  facet normal -5.368755e-01 -4.601790e-01 7.071068e-01
    outer loop
      vertex   -5.535149e+01 -5.208993e+01 -5.000000e-01
      vertex   -3.632052e+01 -6.200000e+01 7.500000e+00
      vertex   -5.087382e+01 -4.502115e+01 7.500000e+00
    endloop
  endfacet
  facet normal -5.368755e-01 -4.601790e-01 7.071068e-01
    outer loop
      vertex   -5.535149e+01 -5.208993e+01 -5.000000e-01
      vertex   -5.087382e+01 -4.502115e+01 7.500000e+00
      vertex   -6.382846e+01 -3.070897e+01 6.978351e+00
    endloop
  endfacet
  facet normal -5.368755e-01 -4.601790e-01 7.071068e-01
    outer loop
      vertex   -6.382846e+01 -3.070897e+01 6.978351e+00
      vertex   -5.087382e+01 -4.502115e+01 7.500000e+00
      vertex   -6.542712e+01 -2.804230e+01 7.500000e+00
    endloop
  endfacet
  facet normal -5.368755e-01 -4.601790e-01 7.071068e-01
    outer loop
      vertex   -6.382846e+01 -3.070897e+01 6.978351e+00
      vertex   -6.542712e+01 -2.804230e+01 7.500000e+00
      vertex   -7.070298e+01 -3.417986e+01 -5.000000e-01
    endloop
  endfacet
  facet normal -5.368755e-01 -4.601790e-01 7.071068e-01
    outer loop
      vertex   -7.070298e+01 -3.417986e+01 -5.000000e-01
      vertex   -6.542712e+01 -2.804230e+01 7.500000e+00
      vertex   -8.605447e+01 -1.626978e+01 -5.000000e-01
    endloop
  endfacet
  facet normal -5.368755e-01 -4.601790e-01 7.071068e-01
    outer loop
      vertex   -8.605447e+01 -1.626978e+01 -5.000000e-01
      vertex   -6.542712e+01 -2.804230e+01 7.500000e+00
      vertex   -7.998042e+01 -1.106345e+01 7.500000e+00
    endloop
  endfacet
  facet normal -5.368755e-01 -4.601790e-01 7.071068e-01
    outer loop
      vertex   -7.070298e+01 -3.417986e+01 -5.000000e-01
      vertex   -5.535149e+01 -5.208993e+01 -5.000000e-01
      vertex   -6.382846e+01 -3.070897e+01 6.978351e+00
    endloop
  endfacet
  facet normal -8.211382e-01 -5.707295e-01 -5.793253e-16
    outer loop
      vertex   -8.605447e+01 -1.626978e+01 -5.000000e-01
      vertex   -8.893835e+01 -1.212059e+01 -5.000000e-01
      vertex   -8.605447e+01 -1.626978e+01 -7.500000e+00
    endloop
  endfacet
  facet normal -8.211382e-01 -5.707295e-01 2.912816e-15
    outer loop
      vertex   -8.605447e+01 -1.626978e+01 -7.500000e+00
      vertex   -8.893835e+01 -1.212059e+01 -5.000000e-01
      vertex   -8.893835e+01 -1.212059e+01 -7.500000e+00
    endloop
  endfacet
  facet normal -9.191303e-01 -3.939538e-01 3.431978e-15
    outer loop
      vertex   -8.893835e+01 -1.212059e+01 -7.500000e+00
      vertex   -8.893835e+01 -1.212059e+01 -5.000000e-01
      vertex   -9.092899e+01 -7.476251e+00 -5.000000e-01
    endloop
  endfacet
  facet normal -9.191303e-01 -3.939538e-01 -3.013257e-16
    outer loop
      vertex   -8.893835e+01 -1.212059e+01 -7.500000e+00
      vertex   -9.092899e+01 -7.476251e+00 -5.000000e-01
      vertex   -9.092899e+01 -7.476251e+00 -7.500000e+00
    endloop
  endfacet
  facet normal -9.795740e-01 -2.010842e-01 -1.530846e-16
    outer loop
      vertex   -9.092899e+01 -7.476251e+00 -7.500000e+00
      vertex   -9.092899e+01 -7.476251e+00 -5.000000e-01
      vertex   -9.194507e+01 -2.526488e+00 -5.000000e-01
    endloop
  endfacet
  facet normal -9.795740e-01 -2.010842e-01 -7.533144e-17
    outer loop
      vertex   -9.092899e+01 -7.476251e+00 -7.500000e+00
      vertex   -9.194507e+01 -2.526488e+00 -5.000000e-01
      vertex   -9.194507e+01 -2.526488e+00 -7.500000e+00
    endloop
  endfacet
  facet normal -1.000000e+00 0.000000e+00 0.000000e+00
    outer loop
      vertex   -9.194507e+01 -2.526488e+00 -7.500000e+00
      vertex   -9.194507e+01 -2.526488e+00 -5.000000e-01
      vertex   -9.194507e+01 2.526488e+00 -7.500000e+00
    endloop
  endfacet
  facet normal -1.000000e+00 0.000000e+00 0.000000e+00
    outer loop
      vertex   -9.194507e+01 2.526488e+00 -7.500000e+00
      vertex   -9.194507e+01 -2.526488e+00 -5.000000e-01
      vertex   -9.194507e+01 2.526488e+00 -5.000000e-01
    endloop
  endfacet
  facet normal -9.795740e-01 2.010842e-01 0.000000e+00
    outer loop
      vertex   -9.194507e+01 2.526488e+00 -7.500000e+00
      vertex   -9.194507e+01 2.526488e+00 -5.000000e-01
      vertex   -9.092899e+01 7.476251e+00 -5.000000e-01
    endloop
  endfacet
  facet normal -9.795740e-01 2.010842e-01 -2.511048e-17
    outer loop
      vertex   -9.194507e+01 2.526488e+00 -7.500000e+00
      vertex   -9.092899e+01 7.476251e+00 -5.000000e-01
      vertex   -9.092899e+01 7.476251e+00 -7.500000e+00
    endloop
  endfacet
  facet normal -9.191303e-01 3.939538e-01 -4.998589e-17
    outer loop
      vertex   -9.092899e+01 7.476251e+00 -7.500000e+00
      vertex   -9.092899e+01 7.476251e+00 -5.000000e-01
      vertex   -8.893835e+01 1.212059e+01 -5.000000e-01
    endloop
  endfacet
  facet normal -9.191303e-01 3.939538e-01 3.565688e-15
    outer loop
      vertex   -9.092899e+01 7.476251e+00 -7.500000e+00
      vertex   -8.893835e+01 1.212059e+01 -5.000000e-01
      vertex   -8.893835e+01 1.212059e+01 -7.500000e+00
    endloop
  endfacet
  facet normal -8.211382e-01 5.707295e-01 3.044359e-15
    outer loop
      vertex   -8.893835e+01 1.212059e+01 -7.500000e+00
      vertex   -8.893835e+01 1.212059e+01 -5.000000e-01
      vertex   -8.605447e+01 1.626978e+01 -5.000000e-01
    endloop
  endfacet
  facet normal -8.211382e-01 5.707295e-01 -6.026515e-16
    outer loop
      vertex   -8.893835e+01 1.212059e+01 -7.500000e+00
      vertex   -8.605447e+01 1.626978e+01 -5.000000e-01
      vertex   -8.605447e+01 1.626978e+01 -7.500000e+00
    endloop
  endfacet
  facet normal -7.592566e-01 6.507914e-01 -6.605930e-16
    outer loop
      vertex   -8.605447e+01 1.626978e+01 -5.000000e-01
      vertex   -7.070298e+01 3.417986e+01 -5.000000e-01
      vertex   -8.605447e+01 1.626978e+01 -7.500000e+00
    endloop
  endfacet
  facet normal -7.592566e-01 6.507914e-01 -6.884991e-16
    outer loop
      vertex   -8.605447e+01 1.626978e+01 -7.500000e+00
      vertex   -7.070298e+01 3.417986e+01 -5.000000e-01
      vertex   -7.070298e+01 3.417986e+01 -7.500000e+00
    endloop
  endfacet
  facet normal -7.592566e-01 6.507914e-01 -6.605930e-16
    outer loop
      vertex   -7.070298e+01 3.417986e+01 -7.500000e+00
      vertex   -7.070298e+01 3.417986e+01 -5.000000e-01
      vertex   -5.535149e+01 5.208993e+01 -5.000000e-01
    endloop
  endfacet
  facet normal -7.592566e-01 6.507914e-01 0.000000e+00
    outer loop
      vertex   -7.070298e+01 3.417986e+01 -7.500000e+00
      vertex   -5.535149e+01 5.208993e+01 -5.000000e-01
      vertex   -5.535149e+01 5.208993e+01 -7.500000e+00
    endloop
  endfacet
  facet normal -7.592566e-01 6.507914e-01 0.000000e+00
    outer loop
      vertex   -5.535149e+01 5.208993e+01 -7.500000e+00
      vertex   -5.535149e+01 5.208993e+01 -5.000000e-01
      vertex   -4.000000e+01 7.000000e+01 -5.000000e-01
    endloop
  endfacet
  facet normal -7.592566e-01 6.507914e-01 0.000000e+00
    outer loop
      vertex   -5.535149e+01 5.208993e+01 -7.500000e+00
      vertex   -4.000000e+01 7.000000e+01 -5.000000e-01
      vertex   -4.000000e+01 7.000000e+01 -7.500000e+00
    endloop
  endfacet
  facet normal -7.105427e-16 1.000000e+00 0.000000e+00
    outer loop
      vertex   -4.000000e+01 7.000000e+01 -5.000000e-01
      vertex   -2.000000e+01 7.000000e+01 -5.000000e-01
      vertex   -4.000000e+01 7.000000e+01 -7.500000e+00
    endloop
  endfacet
  facet normal -7.105427e-16 1.000000e+00 0.000000e+00
    outer loop
      vertex   -4.000000e+01 7.000000e+01 -7.500000e+00
      vertex   -2.000000e+01 7.000000e+01 -5.000000e-01
      vertex   -2.000000e+01 7.000000e+01 -7.500000e+00
    endloop
  endfacet
  facet normal 0.000000e+00 1.000000e+00 0.000000e+00
    outer loop
      vertex   -2.000000e+01 7.000000e+01 -7.500000e+00
      vertex   -2.000000e+01 7.000000e+01 -5.000000e-01
      vertex   8.881784e-15 7.000000e+01 -5.000000e-01
    endloop
  endfacet
  facet normal 0.000000e+00 1.000000e+00 0.000000e+00
    outer loop
      vertex   -2.000000e+01 7.000000e+01 -7.500000e+00
      vertex   8.881784e-15 7.000000e+01 -5.000000e-01
      vertex   8.881784e-15 7.000000e+01 -7.500000e+00
    endloop
  endfacet
  facet normal -7.592566e-01 -6.507914e-01 1.321186e-15
    outer loop
      vertex   -4.000000e+01 -7.000000e+01 -5.000000e-01
      vertex   -5.535149e+01 -5.208993e+01 -5.000000e-01
      vertex   -4.000000e+01 -7.000000e+01 -7.500000e+00
    endloop
  endfacet
  facet normal -7.592566e-01 -6.507914e-01 1.032749e-15
    outer loop
      vertex   -4.000000e+01 -7.000000e+01 -7.500000e+00
      vertex   -5.535149e+01 -5.208993e+01 -5.000000e-01
      vertex   -5.535149e+01 -5.208993e+01 -7.500000e+00
    endloop
  endfacet
  facet normal -7.592566e-01 -6.507914e-01 8.807906e-16
    outer loop
      vertex   -5.535149e+01 -5.208993e+01 -7.500000e+00
      vertex   -5.535149e+01 -5.208993e+01 -5.000000e-01
      vertex   -7.070298e+01 -3.417986e+01 -5.000000e-01
    endloop
  endfacet
  facet normal -7.592566e-01 -6.507914e-01 3.098246e-15
    outer loop
      vertex   -5.535149e+01 -5.208993e+01 -7.500000e+00
      vertex   -7.070298e+01 -3.417986e+01 -5.000000e-01
      vertex   -7.070298e+01 -3.417986e+01 -7.500000e+00
    endloop
  endfacet
  facet normal -7.592566e-01 -6.507914e-01 3.082767e-15
    outer loop
      vertex   -7.070298e+01 -3.417986e+01 -7.500000e+00
      vertex   -7.070298e+01 -3.417986e+01 -5.000000e-01
      vertex   -8.605447e+01 -1.626978e+01 -5.000000e-01
    endloop
  endfacet
  facet normal -7.592566e-01 -6.507914e-01 -6.884991e-16
    outer loop
      vertex   -7.070298e+01 -3.417986e+01 -7.500000e+00
      vertex   -8.605447e+01 -1.626978e+01 -5.000000e-01
      vertex   -8.605447e+01 -1.626978e+01 -7.500000e+00
    endloop
  endfacet
  facet normal 0.000000e+00 0.000000e+00 -1.000000e+00
    outer loop
      vertex   -8.893835e+01 -1.212059e+01 -7.500000e+00
      vertex   -7.500000e+01 0.000000e+00 -7.500000e+00
      vertex   -8.605447e+01 -1.626978e+01 -7.500000e+00
    endloop
  endfacet
  facet normal 0.000000e+00 0.000000e+00 -1.000000e+00
    outer loop
      vertex   -8.605447e+01 -1.626978e+01 -7.500000e+00
      vertex   -7.500000e+01 0.000000e+00 -7.500000e+00
      vertex   -7.500000e+01 -2.333333e+01 -7.500000e+00
    endloop
  endfacet
  facet normal 0.000000e+00 0.000000e+00 -1.000000e+00
    outer loop
      vertex   -8.605447e+01 -1.626978e+01 -7.500000e+00
      vertex   -7.500000e+01 -2.333333e+01 -7.500000e+00
      vertex   -7.070298e+01 -3.417986e+01 -7.500000e+00
    endloop
  endfacet
  facet normal 0.000000e+00 0.000000e+00 -1.000000e+00
    outer loop
      vertex   -7.070298e+01 -3.417986e+01 -7.500000e+00
      vertex   -7.500000e+01 -2.333333e+01 -7.500000e+00
      vertex   -5.000000e+01 -2.333333e+01 -7.500000e+00
    endloop
  endfacet
  facet normal 0.000000e+00 0.000000e+00 -1.000000e+00
    outer loop
      vertex   -7.070298e+01 -3.417986e+01 -7.500000e+00
      vertex   -5.000000e+01 -2.333333e+01 -7.500000e+00
      vertex   -5.000000e+01 -4.666667e+01 -7.500000e+00
    endloop
  endfacet
  facet normal 0.000000e+00 0.000000e+00 -1.000000e+00
    outer loop
      vertex   -5.000000e+01 -4.666667e+01 -7.500000e+00
      vertex   -5.000000e+01 -2.333333e+01 -7.500000e+00
      vertex   -2.500000e+01 -2.333333e+01 -7.500000e+00
    endloop
  endfacet
  facet normal 0.000000e+00 0.000000e+00 -1.000000e+00
    outer loop
      vertex   -5.000000e+01 -4.666667e+01 -7.500000e+00
      vertex   -2.500000e+01 -2.333333e+01 -7.500000e+00
      vertex   -2.500000e+01 -4.666667e+01 -7.500000e+00
    endloop
  endfacet
  facet normal 0.000000e+00 0.000000e+00 -1.000000e+00
    outer loop
      vertex   -2.500000e+01 -4.666667e+01 -7.500000e+00
      vertex   -2.500000e+01 -2.333333e+01 -7.500000e+00
      vertex   8.881784e-15 -2.333333e+01 -7.500000e+00
    endloop
  endfacet
  facet normal 0.000000e+00 0.000000e+00 -1.000000e+00
    outer loop
      vertex   -2.500000e+01 -4.666667e+01 -7.500000e+00
      vertex   8.881784e-15 -2.333333e+01 -7.500000e+00
      vertex   8.881784e-15 -4.666667e+01 -7.500000e+00
    endloop
  endfacet
  facet normal 0.000000e+00 0.000000e+00 -1.000000e+00
    outer loop
      vertex   -8.893835e+01 -1.212059e+01 -7.500000e+00
      vertex   -9.092899e+01 -7.476251e+00 -7.500000e+00
      vertex   -7.500000e+01 0.000000e+00 -7.500000e+00
    endloop
  endfacet
  facet normal 0.000000e+00 0.000000e+00 -1.000000e+00
    outer loop
      vertex   -7.500000e+01 0.000000e+00 -7.500000e+00
      vertex   -9.092899e+01 -7.476251e+00 -7.500000e+00
      vertex   -9.194507e+01 -2.526488e+00 -7.500000e+00
    endloop
  endfacet
  facet normal -0.000000e+00 0.000000e+00 -1.000000e+00
    outer loop
      vertex   -7.500000e+01 0.000000e+00 -7.500000e+00
      vertex   -9.194507e+01 -2.526488e+00 -7.500000e+00
      vertex   -9.194507e+01 2.526488e+00 -7.500000e+00
    endloop
  endfacet
  facet normal 0.000000e+00 0.000000e+00 -1.000000e+00
    outer loop
      vertex   -9.194507e+01 2.526488e+00 -7.500000e+00
      vertex   -9.092899e+01 7.476251e+00 -7.500000e+00
      vertex   -7.500000e+01 0.000000e+00 -7.500000e+00
    endloop
  endfacet
  facet normal 0.000000e+00 0.000000e+00 -1.000000e+00
    outer loop
      vertex   -7.500000e+01 0.000000e+00 -7.500000e+00
      vertex   -9.092899e+01 7.476251e+00 -7.500000e+00
      vertex   -8.893835e+01 1.212059e+01 -7.500000e+00
    endloop
  endfacet
  facet normal 0.000000e+00 0.000000e+00 -1.000000e+00
    outer loop
      vertex   -7.500000e+01 0.000000e+00 -7.500000e+00
      vertex   -8.893835e+01 1.212059e+01 -7.500000e+00
      vertex   -8.605447e+01 1.626978e+01 -7.500000e+00
    endloop
  endfacet
  facet normal 0.000000e+00 0.000000e+00 -1.000000e+00
    outer loop
      vertex   -7.500000e+01 0.000000e+00 -7.500000e+00
      vertex   -8.605447e+01 1.626978e+01 -7.500000e+00
      vertex   -7.500000e+01 2.333333e+01 -7.500000e+00
    endloop
  endfacet
  facet normal -0.000000e+00 0.000000e+00 -1.000000e+00
    outer loop
      vertex   -7.500000e+01 2.333333e+01 -7.500000e+00
      vertex   -8.605447e+01 1.626978e+01 -7.500000e+00
      vertex   -7.070298e+01 3.417986e+01 -7.500000e+00
    endloop
  endfacet
  facet normal 0.000000e+00 0.000000e+00 -1.000000e+00
    outer loop
      vertex   -7.500000e+01 2.333333e+01 -7.500000e+00
      vertex   -7.070298e+01 3.417986e+01 -7.500000e+00
      vertex   -5.000000e+01 2.333333e+01 -7.500000e+00
    endloop
  endfacet
  facet normal 0.000000e+00 0.000000e+00 -1.000000e+00
    outer loop
      vertex   -5.000000e+01 2.333333e+01 -7.500000e+00
      vertex   -7.070298e+01 3.417986e+01 -7.500000e+00
      vertex   -5.000000e+01 4.666667e+01 -7.500000e+00
    endloop
  endfacet
  facet normal 0.000000e+00 0.000000e+00 -1.000000e+00
    outer loop
      vertex   -5.000000e+01 2.333333e+01 -7.500000e+00
      vertex   -5.000000e+01 4.666667e+01 -7.500000e+00
      vertex   -2.500000e+01 4.666667e+01 -7.500000e+00
    endloop
  endfacet
  facet normal 0.000000e+00 0.000000e+00 -1.000000e+00
    outer loop
      vertex   -2.500000e+01 4.666667e+01 -7.500000e+00
      vertex   -5.000000e+01 4.666667e+01 -7.500000e+00
      vertex   -4.000000e+01 7.000000e+01 -7.500000e+00
    endloop
  endfacet
  facet normal 0.000000e+00 0.000000e+00 -1.000000e+00
    outer loop
      vertex   -2.500000e+01 4.666667e+01 -7.500000e+00
      vertex   -4.000000e+01 7.000000e+01 -7.500000e+00
      vertex   -2.000000e+01 7.000000e+01 -7.500000e+00
    endloop
  endfacet
  facet normal 0.000000e+00 0.000000e+00 -1.000000e+00
    outer loop
      vertex   -7.070298e+01 3.417986e+01 -7.500000e+00
      vertex   -5.535149e+01 5.208993e+01 -7.500000e+00
      vertex   -5.000000e+01 4.666667e+01 -7.500000e+00
    endloop
  endfacet
  facet normal 0.000000e+00 0.000000e+00 -1.000000e+00
    outer loop
      vertex   -5.000000e+01 4.666667e+01 -7.500000e+00
      vertex   -5.535149e+01 5.208993e+01 -7.500000e+00
      vertex   -4.000000e+01 7.000000e+01 -7.500000e+00
    endloop
  endfacet
  facet normal -0.000000e+00 -0.000000e+00 -1.000000e+00
    outer loop
      vertex   8.881784e-15 7.000000e+01 -7.500000e+00
      vertex   8.881784e-15 4.666667e+01 -7.500000e+00
      vertex   -2.000000e+01 7.000000e+01 -7.500000e+00
    endloop
  endfacet
  facet normal 0.000000e+00 -0.000000e+00 -1.000000e+00
    outer loop
      vertex   -2.000000e+01 7.000000e+01 -7.500000e+00
      vertex   8.881784e-15 4.666667e+01 -7.500000e+00
      vertex   -2.500000e+01 4.666667e+01 -7.500000e+00
    endloop
  endfacet
  facet normal 0.000000e+00 0.000000e+00 -1.000000e+00
    outer loop
      vertex   -2.500000e+01 4.666667e+01 -7.500000e+00
      vertex   8.881784e-15 4.666667e+01 -7.500000e+00
      vertex   -2.500000e+01 2.333333e+01 -7.500000e+00
    endloop
  endfacet
  facet normal 0.000000e+00 0.000000e+00 -1.000000e+00
    outer loop
      vertex   -2.500000e+01 2.333333e+01 -7.500000e+00
      vertex   8.881784e-15 4.666667e+01 -7.500000e+00
      vertex   8.881784e-15 2.333333e+01 -7.500000e+00
    endloop
  endfacet
  facet normal 0.000000e+00 0.000000e+00 -1.000000e+00
    outer loop
      vertex   -2.500000e+01 2.333333e+01 -7.500000e+00
      vertex   8.881784e-15 2.333333e+01 -7.500000e+00
      vertex   -2.500000e+01 0.000000e+00 -7.500000e+00
    endloop
  endfacet
  facet normal 0.000000e+00 0.000000e+00 -1.000000e+00
    outer loop
      vertex   -2.500000e+01 0.000000e+00 -7.500000e+00
      vertex   8.881784e-15 2.333333e+01 -7.500000e+00
      vertex   8.881784e-15 0.000000e+00 -7.500000e+00
    endloop
  endfacet
  facet normal 0.000000e+00 0.000000e+00 -1.000000e+00
    outer loop
      vertex   -2.500000e+01 0.000000e+00 -7.500000e+00
      vertex   8.881784e-15 0.000000e+00 -7.500000e+00
      vertex   -2.500000e+01 -2.333333e+01 -7.500000e+00
    endloop
  endfacet
  facet normal 0.000000e+00 0.000000e+00 -1.000000e+00
    outer loop
      vertex   -2.500000e+01 -2.333333e+01 -7.500000e+00
      vertex   8.881784e-15 0.000000e+00 -7.500000e+00
      vertex   8.881784e-15 -2.333333e+01 -7.500000e+00
    endloop
  endfacet
  facet normal 0.000000e+00 0.000000e+00 -1.000000e+00
    outer loop
      vertex   8.881784e-15 -7.000000e+01 -7.500000e+00
      vertex   -2.000000e+01 -7.000000e+01 -7.500000e+00
      vertex   8.881784e-15 -4.666667e+01 -7.500000e+00
    endloop
  endfacet
  facet normal -0.000000e+00 0.000000e+00 -1.000000e+00
    outer loop
      vertex   8.881784e-15 -4.666667e+01 -7.500000e+00
      vertex   -2.000000e+01 -7.000000e+01 -7.500000e+00
      vertex   -2.500000e+01 -4.666667e+01 -7.500000e+00
    endloop
  endfacet
  facet normal 0.000000e+00 0.000000e+00 -1.000000e+00
    outer loop
      vertex   -2.000000e+01 -7.000000e+01 -7.500000e+00
      vertex   -4.000000e+01 -7.000000e+01 -7.500000e+00
      vertex   -2.500000e+01 -4.666667e+01 -7.500000e+00
    endloop
  endfacet
  facet normal -0.000000e+00 0.000000e+00 -1.000000e+00
    outer loop
      vertex   -2.500000e+01 -4.666667e+01 -7.500000e+00
      vertex   -4.000000e+01 -7.000000e+01 -7.500000e+00
      vertex   -5.000000e+01 -4.666667e+01 -7.500000e+00
    endloop
  endfacet
  facet normal 0.000000e+00 0.000000e+00 -1.000000e+00
    outer loop
      vertex   -4.000000e+01 -7.000000e+01 -7.500000e+00
      vertex   -5.535149e+01 -5.208993e+01 -7.500000e+00
      vertex   -5.000000e+01 -4.666667e+01 -7.500000e+00
    endloop
  endfacet
  facet normal -0.000000e+00 0.000000e+00 -1.000000e+00
    outer loop
      vertex   -5.000000e+01 -4.666667e+01 -7.500000e+00
      vertex   -5.535149e+01 -5.208993e+01 -7.500000e+00
      vertex   -7.070298e+01 -3.417986e+01 -7.500000e+00
    endloop
  endfacet
  facet normal 0.000000e+00 0.000000e+00 -1.000000e+00
    outer loop
      vertex   -5.000000e+01 -2.333333e+01 -7.500000e+00
      vertex   -7.500000e+01 -2.333333e+01 -7.500000e+00
      vertex   -5.000000e+01 0.000000e+00 -7.500000e+00
    endloop
  endfacet
  facet normal -0.000000e+00 0.000000e+00 -1.000000e+00
    outer loop
      vertex   -5.000000e+01 0.000000e+00 -7.500000e+00
      vertex   -7.500000e+01 -2.333333e+01 -7.500000e+00
      vertex   -7.500000e+01 0.000000e+00 -7.500000e+00
    endloop
  endfacet
  facet normal 0.000000e+00 0.000000e+00 -1.000000e+00
    outer loop
      vertex   -5.000000e+01 0.000000e+00 -7.500000e+00
      vertex   -7.500000e+01 0.000000e+00 -7.500000e+00
      vertex   -5.000000e+01 2.333333e+01 -7.500000e+00
    endloop
  endfacet
  facet normal -0.000000e+00 0.000000e+00 -1.000000e+00
    outer loop
      vertex   -5.000000e+01 2.333333e+01 -7.500000e+00
      vertex   -7.500000e+01 0.000000e+00 -7.500000e+00
      vertex   -7.500000e+01 2.333333e+01 -7.500000e+00
    endloop
  endfacet
  facet normal 0.000000e+00 0.000000e+00 -1.000000e+00
    outer loop
      vertex   -2.500000e+01 -2.333333e+01 -7.500000e+00
      vertex   -5.000000e+01 -2.333333e+01 -7.500000e+00
      vertex   -2.500000e+01 0.000000e+00 -7.500000e+00
    endloop
  endfacet
  facet normal -0.000000e+00 0.000000e+00 -1.000000e+00
    outer loop
      vertex   -2.500000e+01 0.000000e+00 -7.500000e+00
      vertex   -5.000000e+01 -2.333333e+01 -7.500000e+00
      vertex   -5.000000e+01 0.000000e+00 -7.500000e+00
    endloop
  endfacet
  facet normal 0.000000e+00 0.000000e+00 -1.000000e+00
    outer loop
      vertex   -2.500000e+01 0.000000e+00 -7.500000e+00
      vertex   -5.000000e+01 0.000000e+00 -7.500000e+00
      vertex   -2.500000e+01 2.333333e+01 -7.500000e+00
    endloop
  endfacet
  facet normal -0.000000e+00 0.000000e+00 -1.000000e+00
    outer loop
      vertex   -2.500000e+01 2.333333e+01 -7.500000e+00
      vertex   -5.000000e+01 0.000000e+00 -7.500000e+00
      vertex   -5.000000e+01 2.333333e+01 -7.500000e+00
    endloop
  endfacet
  facet normal 0.000000e+00 0.000000e+00 -1.000000e+00
    outer loop
      vertex   -2.500000e+01 2.333333e+01 -7.500000e+00
      vertex   -5.000000e+01 2.333333e+01 -7.500000e+00
      vertex   -2.500000e+01 4.666667e+01 -7.500000e+00
    endloop
  endfacet
  facet normal -7.105427e-16 -1.000000e+00 -0.000000e+00
    outer loop
      vertex   8.881784e-15 -7.000000e+01 -5.000000e-01
      vertex   -2.000000e+01 -7.000000e+01 -5.000000e-01
      vertex   8.881784e-15 -7.000000e+01 -7.500000e+00
    endloop
  endfacet
  facet normal 0.000000e+00 -1.000000e+00 2.030122e-15
    outer loop
      vertex   8.881784e-15 -7.000000e+01 -7.500000e+00
      vertex   -2.000000e+01 -7.000000e+01 -5.000000e-01
      vertex   -2.000000e+01 -7.000000e+01 -7.500000e+00
    endloop
  endfacet
  facet normal 0.000000e+00 -1.000000e+00 2.030122e-15
    outer loop
      vertex   -2.000000e+01 -7.000000e+01 -7.500000e+00
      vertex   -2.000000e+01 -7.000000e+01 -5.000000e-01
      vertex   -4.000000e+01 -7.000000e+01 -5.000000e-01
    endloop
  endfacet
  facet normal 0.000000e+00 -1.000000e+00 2.030122e-15
    outer loop
      vertex   -2.000000e+01 -7.000000e+01 -7.500000e+00
      vertex   -4.000000e+01 -7.000000e+01 -5.000000e-01
      vertex   -4.000000e+01 -7.000000e+01 -7.500000e+00
    endloop
  endfacet
  facet normal 1.000000e+00 0.000000e+00 0.000000e+00
    outer loop
      vertex   8.881784e-15 -3.720000e+01 7.500000e+00
      vertex   8.881784e-15 -6.200000e+01 7.500000e+00
      vertex   8.881784e-15 -4.666667e+01 -7.500000e+00
    endloop
  endfacet
  facet normal 1.000000e+00 0.000000e+00 0.000000e+00
    outer loop
      vertex   8.881784e-15 -4.666667e+01 -7.500000e+00
      vertex   8.881784e-15 -6.200000e+01 7.500000e+00
      vertex   8.881784e-15 -7.000000e+01 -5.000000e-01
    endloop
  endfacet
  facet normal 1.000000e+00 0.000000e+00 0.000000e+00
    outer loop
      vertex   8.881784e-15 -4.666667e+01 -7.500000e+00
      vertex   8.881784e-15 -7.000000e+01 -5.000000e-01
      vertex   8.881784e-15 -7.000000e+01 -7.500000e+00
    endloop
  endfacet
  facet normal 1.000000e+00 0.000000e+00 0.000000e+00
    outer loop
      vertex   8.881784e-15 -4.666667e+01 -7.500000e+00
      vertex   8.881784e-15 -2.333333e+01 -7.500000e+00
      vertex   8.881784e-15 -3.720000e+01 7.500000e+00
    endloop
  endfacet
  facet normal 1.000000e+00 -0.000000e+00 0.000000e+00
    outer loop
      vertex   8.881784e-15 -3.720000e+01 7.500000e+00
      vertex   8.881784e-15 -2.333333e+01 -7.500000e+00
      vertex   8.881784e-15 -1.240000e+01 7.500000e+00
    endloop
  endfacet
  facet normal 1.000000e+00 0.000000e+00 0.000000e+00
    outer loop
      vertex   8.881784e-15 -1.240000e+01 7.500000e+00
      vertex   8.881784e-15 -2.333333e+01 -7.500000e+00
      vertex   8.881784e-15 0.000000e+00 -7.500000e+00
    endloop
  endfacet
  facet normal 1.000000e+00 -0.000000e+00 0.000000e+00
    outer loop
      vertex   8.881784e-15 -1.240000e+01 7.500000e+00
      vertex   8.881784e-15 0.000000e+00 -7.500000e+00
      vertex   8.881784e-15 1.240000e+01 7.500000e+00
    endloop
  endfacet
  facet normal 1.000000e+00 0.000000e+00 0.000000e+00
    outer loop
      vertex   8.881784e-15 1.240000e+01 7.500000e+00
      vertex   8.881784e-15 0.000000e+00 -7.500000e+00
      vertex   8.881784e-15 2.333333e+01 -7.500000e+00
    endloop
  endfacet
  facet normal 1.000000e+00 -0.000000e+00 0.000000e+00
    outer loop
      vertex   8.881784e-15 1.240000e+01 7.500000e+00
      vertex   8.881784e-15 2.333333e+01 -7.500000e+00
      vertex   8.881784e-15 3.720000e+01 7.500000e+00
    endloop
  endfacet
  facet normal 1.000000e+00 0.000000e+00 0.000000e+00
    outer loop
      vertex   8.881784e-15 3.720000e+01 7.500000e+00
      vertex   8.881784e-15 2.333333e+01 -7.500000e+00
      vertex   8.881784e-15 4.666667e+01 -7.500000e+00
    endloop
  endfacet
  facet normal 1.000000e+00 -0.000000e+00 0.000000e+00
    outer loop
      vertex   8.881784e-15 3.720000e+01 7.500000e+00
      vertex   8.881784e-15 4.666667e+01 -7.500000e+00
      vertex   8.881784e-15 6.200000e+01 7.500000e+00
    endloop
  endfacet
  facet normal 1.000000e+00 0.000000e+00 0.000000e+00
    outer loop
      vertex   8.881784e-15 6.200000e+01 7.500000e+00
      vertex   8.881784e-15 4.666667e+01 -7.500000e+00
      vertex   8.881784e-15 7.000000e+01 -5.000000e-01
    endloop
  endfacet
  facet normal 1.000000e+00 0.000000e+00 0.000000e+00
    outer loop
      vertex   8.881784e-15 7.000000e+01 -5.000000e-01
      vertex   8.881784e-15 4.666667e+01 -7.500000e+00
      vertex   8.881784e-15 7.000000e+01 -7.500000e+00
    endloop
  endfacet
  facet normal 0.000000e+00 0.000000e+00 1.000000e+00
    outer loop
      vertex   -1.816026e+01 -6.200000e+01 7.500000e+00
      vertex   -2.236584e+01 -3.720000e+01 7.500000e+00
      vertex   -3.632052e+01 -6.200000e+01 7.500000e+00
    endloop
  endfacet
  facet normal 0.000000e+00 -0.000000e+00 1.000000e+00
    outer loop
      vertex   -3.632052e+01 -6.200000e+01 7.500000e+00
      vertex   -2.236584e+01 -3.720000e+01 7.500000e+00
      vertex   -4.473169e+01 -3.720000e+01 7.500000e+00
    endloop
  endfacet
  facet normal 0.000000e+00 0.000000e+00 1.000000e+00
    outer loop
      vertex   -3.632052e+01 -6.200000e+01 7.500000e+00
      vertex   -4.473169e+01 -3.720000e+01 7.500000e+00
      vertex   -5.087382e+01 -4.502115e+01 7.500000e+00
    endloop
  endfacet
  facet normal 0.000000e+00 -0.000000e+00 1.000000e+00
    outer loop
      vertex   -5.087382e+01 -4.502115e+01 7.500000e+00
      vertex   -4.473169e+01 -3.720000e+01 7.500000e+00
      vertex   -6.542712e+01 -2.804230e+01 7.500000e+00
    endloop
  endfacet
  facet normal -0.000000e+00 0.000000e+00 1.000000e+00
    outer loop
      vertex   -6.542712e+01 -2.804230e+01 7.500000e+00
      vertex   -4.473169e+01 -3.720000e+01 7.500000e+00
      vertex   -4.473169e+01 -1.240000e+01 7.500000e+00
    endloop
  endfacet
  facet normal 0.000000e+00 -0.000000e+00 1.000000e+00
    outer loop
      vertex   -6.542712e+01 -2.804230e+01 7.500000e+00
      vertex   -4.473169e+01 -1.240000e+01 7.500000e+00
      vertex   -6.709753e+01 -1.240000e+01 7.500000e+00
    endloop
  endfacet
  facet normal 0.000000e+00 0.000000e+00 1.000000e+00
    outer loop
      vertex   -6.709753e+01 -1.240000e+01 7.500000e+00
      vertex   -4.473169e+01 -1.240000e+01 7.500000e+00
      vertex   -6.709753e+01 1.240000e+01 7.500000e+00
    endloop
  endfacet
  facet normal 0.000000e+00 -0.000000e+00 1.000000e+00
    outer loop
      vertex   -6.709753e+01 -1.240000e+01 7.500000e+00
      vertex   -6.709753e+01 1.240000e+01 7.500000e+00
      vertex   -8.407306e+01 9.774833e-15 7.500000e+00
    endloop
  endfacet
  facet normal 0.000000e+00 0.000000e+00 1.000000e+00
    outer loop
      vertex   -8.407306e+01 9.774833e-15 7.500000e+00
      vertex   -6.709753e+01 1.240000e+01 7.500000e+00
      vertex   -8.360100e+01 3.978312e+00 7.500000e+00
    endloop
  endfacet
  facet normal 0.000000e+00 0.000000e+00 1.000000e+00
    outer loop
      vertex   -8.360100e+01 3.978312e+00 7.500000e+00
      vertex   -6.709753e+01 1.240000e+01 7.500000e+00
      vertex   -8.221106e+01 7.735686e+00 7.500000e+00
    endloop
  endfacet
  facet normal 0.000000e+00 0.000000e+00 1.000000e+00
    outer loop
      vertex   -8.221106e+01 7.735686e+00 7.500000e+00
      vertex   -6.709753e+01 1.240000e+01 7.500000e+00
      vertex   -7.998042e+01 1.106345e+01 7.500000e+00
    endloop
  endfacet
  facet normal 0.000000e+00 0.000000e+00 1.000000e+00
    outer loop
      vertex   -7.998042e+01 1.106345e+01 7.500000e+00
      vertex   -6.709753e+01 1.240000e+01 7.500000e+00
      vertex   -6.542712e+01 2.804230e+01 7.500000e+00
    endloop
  endfacet
  facet normal 0.000000e+00 0.000000e+00 1.000000e+00
    outer loop
      vertex   -6.542712e+01 2.804230e+01 7.500000e+00
      vertex   -6.709753e+01 1.240000e+01 7.500000e+00
      vertex   -4.473169e+01 1.240000e+01 7.500000e+00
    endloop
  endfacet
  facet normal -0.000000e+00 0.000000e+00 1.000000e+00
    outer loop
      vertex   -6.542712e+01 2.804230e+01 7.500000e+00
      vertex   -4.473169e+01 1.240000e+01 7.500000e+00
      vertex   -4.473169e+01 3.720000e+01 7.500000e+00
    endloop
  endfacet
  facet normal 0.000000e+00 0.000000e+00 1.000000e+00
    outer loop
      vertex   -4.473169e+01 3.720000e+01 7.500000e+00
      vertex   -4.473169e+01 1.240000e+01 7.500000e+00
      vertex   -2.236584e+01 1.240000e+01 7.500000e+00
    endloop
  endfacet
  facet normal -0.000000e+00 0.000000e+00 1.000000e+00
    outer loop
      vertex   -4.473169e+01 3.720000e+01 7.500000e+00
      vertex   -2.236584e+01 1.240000e+01 7.500000e+00
      vertex   -2.236584e+01 3.720000e+01 7.500000e+00
    endloop
  endfacet
  facet normal 0.000000e+00 0.000000e+00 1.000000e+00
    outer loop
      vertex   -2.236584e+01 3.720000e+01 7.500000e+00
      vertex   -2.236584e+01 1.240000e+01 7.500000e+00
      vertex   8.881784e-15 1.240000e+01 7.500000e+00
    endloop
  endfacet
  facet normal -0.000000e+00 0.000000e+00 1.000000e+00
    outer loop
      vertex   -2.236584e+01 3.720000e+01 7.500000e+00
      vertex   8.881784e-15 1.240000e+01 7.500000e+00
      vertex   8.881784e-15 3.720000e+01 7.500000e+00
    endloop
  endfacet
  facet normal 0.000000e+00 -0.000000e+00 1.000000e+00
    outer loop
      vertex   8.881784e-15 -6.200000e+01 7.500000e+00
      vertex   8.881784e-15 -3.720000e+01 7.500000e+00
      vertex   -1.816026e+01 -6.200000e+01 7.500000e+00
    endloop
  endfacet
  facet normal 0.000000e+00 -0.000000e+00 1.000000e+00
    outer loop
      vertex   -1.816026e+01 -6.200000e+01 7.500000e+00
      vertex   8.881784e-15 -3.720000e+01 7.500000e+00
      vertex   -2.236584e+01 -3.720000e+01 7.500000e+00
    endloop
  endfacet
  facet normal 0.000000e+00 0.000000e+00 1.000000e+00
    outer loop
      vertex   -2.236584e+01 -3.720000e+01 7.500000e+00
      vertex   8.881784e-15 -3.720000e+01 7.500000e+00
      vertex   -2.236584e+01 -1.240000e+01 7.500000e+00
    endloop
  endfacet
  facet normal -0.000000e+00 0.000000e+00 1.000000e+00
    outer loop
      vertex   -2.236584e+01 -1.240000e+01 7.500000e+00
      vertex   8.881784e-15 -3.720000e+01 7.500000e+00
      vertex   8.881784e-15 -1.240000e+01 7.500000e+00
    endloop
  endfacet
  facet normal 0.000000e+00 0.000000e+00 1.000000e+00
    outer loop
      vertex   -2.236584e+01 -1.240000e+01 7.500000e+00
      vertex   8.881784e-15 -1.240000e+01 7.500000e+00
      vertex   -2.236584e+01 1.240000e+01 7.500000e+00
    endloop
  endfacet
  facet normal -0.000000e+00 0.000000e+00 1.000000e+00
    outer loop
      vertex   -2.236584e+01 1.240000e+01 7.500000e+00
      vertex   8.881784e-15 -1.240000e+01 7.500000e+00
      vertex   8.881784e-15 1.240000e+01 7.500000e+00
    endloop
  endfacet
  facet normal 0.000000e+00 0.000000e+00 1.000000e+00
    outer loop
      vertex   8.881784e-15 6.200000e+01 7.500000e+00
      vertex   -1.816026e+01 6.200000e+01 7.500000e+00
      vertex   8.881784e-15 3.720000e+01 7.500000e+00
    endloop
  endfacet
  facet normal 0.000000e+00 0.000000e+00 1.000000e+00
    outer loop
      vertex   8.881784e-15 3.720000e+01 7.500000e+00
      vertex   -1.816026e+01 6.200000e+01 7.500000e+00
      vertex   -2.236584e+01 3.720000e+01 7.500000e+00
    endloop
  endfacet
  facet normal 0.000000e+00 0.000000e+00 1.000000e+00
    outer loop
      vertex   -1.816026e+01 6.200000e+01 7.500000e+00
      vertex   -3.632052e+01 6.200000e+01 7.500000e+00
      vertex   -2.236584e+01 3.720000e+01 7.500000e+00
    endloop
  endfacet
  facet normal 0.000000e+00 0.000000e+00 1.000000e+00
    outer loop
      vertex   -2.236584e+01 3.720000e+01 7.500000e+00
      vertex   -3.632052e+01 6.200000e+01 7.500000e+00
      vertex   -4.473169e+01 3.720000e+01 7.500000e+00
    endloop
  endfacet
  facet normal 0.000000e+00 0.000000e+00 1.000000e+00
    outer loop
      vertex   -3.632052e+01 6.200000e+01 7.500000e+00
      vertex   -5.087382e+01 4.502115e+01 7.500000e+00
      vertex   -4.473169e+01 3.720000e+01 7.500000e+00
    endloop
  endfacet
  facet normal 0.000000e+00 0.000000e+00 1.000000e+00
    outer loop
      vertex   -4.473169e+01 3.720000e+01 7.500000e+00
      vertex   -5.087382e+01 4.502115e+01 7.500000e+00
      vertex   -6.542712e+01 2.804230e+01 7.500000e+00
    endloop
  endfacet
  facet normal 0.000000e+00 0.000000e+00 1.000000e+00
    outer loop
      vertex   -8.407306e+01 9.774833e-15 7.500000e+00
      vertex   -8.360100e+01 -3.978312e+00 7.500000e+00
      vertex   -6.709753e+01 -1.240000e+01 7.500000e+00
    endloop
  endfacet
  facet normal 0.000000e+00 0.000000e+00 1.000000e+00
    outer loop
      vertex   -6.709753e+01 -1.240000e+01 7.500000e+00
      vertex   -8.360100e+01 -3.978312e+00 7.500000e+00
      vertex   -8.221106e+01 -7.735686e+00 7.500000e+00
    endloop
  endfacet
  facet normal 0.000000e+00 0.000000e+00 1.000000e+00
    outer loop
      vertex   -6.709753e+01 -1.240000e+01 7.500000e+00
      vertex   -8.221106e+01 -7.735686e+00 7.500000e+00
      vertex   -7.998042e+01 -1.106345e+01 7.500000e+00
    endloop
  endfacet
  facet normal 0.000000e+00 0.000000e+00 1.000000e+00
    outer loop
      vertex   -7.998042e+01 -1.106345e+01 7.500000e+00
      vertex   -6.542712e+01 -2.804230e+01 7.500000e+00
      vertex   -6.709753e+01 -1.240000e+01 7.500000e+00
    endloop
  endfacet
  facet normal 0.000000e+00 0.000000e+00 1.000000e+00
    outer loop
      vertex   -4.473169e+01 -1.240000e+01 7.500000e+00
      vertex   -4.473169e+01 -3.720000e+01 7.500000e+00
      vertex   -2.236584e+01 -3.720000e+01 7.500000e+00
    endloop
  endfacet
  facet normal -0.000000e+00 0.000000e+00 1.000000e+00
    outer loop
      vertex   -4.473169e+01 -1.240000e+01 7.500000e+00
      vertex   -2.236584e+01 -3.720000e+01 7.500000e+00
      vertex   -2.236584e+01 -1.240000e+01 7.500000e+00
    endloop
  endfacet
  facet normal 0.000000e+00 0.000000e+00 1.000000e+00
    outer loop
      vertex   -2.236584e+01 1.240000e+01 7.500000e+00
      vertex   -4.473169e+01 1.240000e+01 7.500000e+00
      vertex   -2.236584e+01 -1.240000e+01 7.500000e+00
    endloop
  endfacet
  facet normal 0.000000e+00 0.000000e+00 1.000000e+00
    outer loop
      vertex   -2.236584e+01 -1.240000e+01 7.500000e+00
      vertex   -4.473169e+01 1.240000e+01 7.500000e+00
      vertex   -4.473169e+01 -1.240000e+01 7.500000e+00
    endloop
  endfacet
  facet normal 0.000000e+00 0.000000e+00 1.000000e+00
    outer loop
      vertex   -4.473169e+01 1.240000e+01 7.500000e+00
      vertex   -6.709753e+01 1.240000e+01 7.500000e+00
      vertex   -4.473169e+01 -1.240000e+01 7.500000e+00
    endloop
  endfacet
endsolid
